%TF.GenerationSoftware,KiCad,Pcbnew,10.0.5*%
%TF.CreationDate,2026-09-26T23:26:04+05:30*%
%TF.ProjectId,PCB,5043422e-6b69-4636-9164-5f7063625858,rev?*%
%TF.SameCoordinates,Original*%
%TF.FileFunction,Copper,L1,Top*%
%TF.FilePolarity,Positive*%
%FSLAX46Y46*%
G04 Gerber Fmt 4.6, Leading zero omitted, Abs format (unit mm)*
G04 Created by KiCad (PCBNEW 10.0.5) date 2026-09-26 23:26:04*
%MOMM*%
%LPD*%
G01*
G04 APERTURE LIST*
G04 Aperture macros list*
%AMRoundRect*
0 Rectangle with rounded corners*
0 $1 Rounding radius*
0 $2 $3 $4 $5 $6 $7 $8 $9 X,Y pos of 4 corners*
0 Add a 4 corners polygon primitive as box body*
4,1,4,$2,$3,$4,$5,$6,$7,$8,$9,$2,$3,0*
0 Add four circle primitives for the rounded corners*
1,1,$1+$1,$2,$3*
1,1,$1+$1,$4,$5*
1,1,$1+$1,$6,$7*
1,1,$1+$1,$8,$9*
0 Add four rect primitives between the rounded corners*
20,1,$1+$1,$2,$3,$4,$5,0*
20,1,$1+$1,$4,$5,$6,$7,0*
20,1,$1+$1,$6,$7,$8,$9,0*
20,1,$1+$1,$8,$9,$2,$3,0*%
G04 Aperture macros list end*
%TA.AperFunction,ComponentPad*%
%ADD10R,2.000000X2.000000*%
%TD*%
%TA.AperFunction,ComponentPad*%
%ADD11C,2.000000*%
%TD*%
%TA.AperFunction,ComponentPad*%
%ADD12R,3.200000X2.000000*%
%TD*%
%TA.AperFunction,ComponentPad*%
%ADD13C,2.200000*%
%TD*%
%TA.AperFunction,ComponentPad*%
%ADD14R,3.500000X1.700000*%
%TD*%
%TA.AperFunction,ComponentPad*%
%ADD15O,3.600000X1.700000*%
%TD*%
%TA.AperFunction,ComponentPad*%
%ADD16O,3.700000X1.700000*%
%TD*%
%TA.AperFunction,ComponentPad*%
%ADD17R,1.700000X1.700000*%
%TD*%
%TA.AperFunction,ComponentPad*%
%ADD18C,1.700000*%
%TD*%
%TA.AperFunction,ComponentPad*%
%ADD19RoundRect,0.250000X0.550000X-0.550000X0.550000X0.550000X-0.550000X0.550000X-0.550000X-0.550000X0*%
%TD*%
%TA.AperFunction,ComponentPad*%
%ADD20C,1.600000*%
%TD*%
%TA.AperFunction,ComponentPad*%
%ADD21RoundRect,0.250000X-0.550000X0.550000X-0.550000X-0.550000X0.550000X-0.550000X0.550000X0.550000X0*%
%TD*%
%TA.AperFunction,ComponentPad*%
%ADD22RoundRect,0.250000X0.550000X0.550000X-0.550000X0.550000X-0.550000X-0.550000X0.550000X-0.550000X0*%
%TD*%
%TA.AperFunction,ViaPad*%
%ADD23C,0.600000*%
%TD*%
%TA.AperFunction,Conductor*%
%ADD24C,0.200000*%
%TD*%
G04 APERTURE END LIST*
D10*
%TO.P,SW7,A,A_A*%
%TO.N,ENC1_A*%
X170750000Y-46500000D03*
D11*
%TO.P,SW7,B,B_B*%
%TO.N,ENC1_B*%
X170750000Y-51500000D03*
%TO.P,SW7,C,C_C*%
%TO.N,GND*%
X170750000Y-49000000D03*
D12*
%TO.P,SW7,MP*%
%TO.N,N/C*%
X178250000Y-43400000D03*
X178250000Y-54600000D03*
D11*
%TO.P,SW7,S1,S1_S1*%
%TO.N,ENC1_SW*%
X185250000Y-51500000D03*
%TO.P,SW7,S2,S2_S2*%
%TO.N,GND*%
X185250000Y-46500000D03*
%TD*%
D13*
%TO.P,SW1,1,1_1*%
%TO.N,COL0*%
X140910000Y-75910000D03*
%TO.P,SW1,2,2_2*%
%TO.N,Net-(D1-A)*%
X134560000Y-78450000D03*
%TD*%
%TO.P,SW5,1,1_1*%
%TO.N,COL1*%
X171090000Y-75910000D03*
%TO.P,SW5,2,2_2*%
%TO.N,Net-(D5-A)*%
X164740000Y-78450000D03*
%TD*%
%TO.P,SW6,1,1_1*%
%TO.N,COL2*%
X171090000Y-91000000D03*
%TO.P,SW6,2,2_2*%
%TO.N,Net-(D6-A)*%
X164740000Y-93540000D03*
%TD*%
%TO.P,SW4,1,1_1*%
%TO.N,COL0*%
X156000000Y-91000000D03*
%TO.P,SW4,2,2_2*%
%TO.N,Net-(D4-A)*%
X149650000Y-93540000D03*
%TD*%
%TO.P,SW3,1,1_1*%
%TO.N,COL2*%
X156000000Y-75910000D03*
%TO.P,SW3,2,2_2*%
%TO.N,Net-(D3-A)*%
X149650000Y-78450000D03*
%TD*%
D14*
%TO.P,U1,1,PA02_A0_D0_1*%
%TO.N,COL0*%
X143750000Y-34000000D03*
D15*
%TO.P,U1,2,PA4_A1_D1_2*%
%TO.N,COL1*%
X143750000Y-36540000D03*
%TO.P,U1,3,PA10_A2_D2_3*%
%TO.N,COL2*%
X143750000Y-39080000D03*
%TO.P,U1,4,PA11_A3_D3_4*%
%TO.N,ENC1_A*%
X143750000Y-41620000D03*
%TO.P,U1,5,PA8_A4_D4_SDA_5*%
%TO.N,SDA*%
X143750000Y-44160000D03*
%TO.P,U1,6,PA9_A5_D5_SCL_6*%
%TO.N,SCL*%
X143750000Y-46700000D03*
%TO.P,U1,7,PB08_A6_D6_TX_7*%
%TO.N,ENC1_B*%
X143750000Y-49240000D03*
%TO.P,U1,8,PB09_A7_D7_RX_8*%
%TO.N,ENC1_SW*%
X161000000Y-49240000D03*
%TO.P,U1,9,PA7_A8_D8_SCK_9*%
%TO.N,ROW0*%
X161000000Y-46700000D03*
%TO.P,U1,10,PA5_A9_D9_MISO_10*%
%TO.N,ROW1*%
X161000000Y-44160000D03*
D16*
%TO.P,U1,11,PA6_A10_D10_MOSI_11*%
%TO.N,WS2812B*%
X161000000Y-41620000D03*
%TO.P,U1,12,3V3_12*%
%TO.N,unconnected-(U1-3V3-Pad12)*%
X161000000Y-39080000D03*
%TO.P,U1,13,GND_13*%
%TO.N,GND*%
X161000000Y-36540000D03*
%TO.P,U1,14,5V_14*%
%TO.N,VCC*%
X161000000Y-34000000D03*
%TD*%
D17*
%TO.P,J1,1,Pin_1_1*%
%TO.N,SDA*%
X118000000Y-56920000D03*
D18*
%TO.P,J1,2,Pin_2_2*%
%TO.N,SCL*%
X118000000Y-59460000D03*
%TO.P,J1,3,Pin_3_3*%
%TO.N,GND*%
X118000000Y-62000000D03*
%TO.P,J1,4,Pin_4_4*%
%TO.N,VCC*%
X118000000Y-64540000D03*
%TD*%
D13*
%TO.P,SW2,1,1_1*%
%TO.N,COL1*%
X140910000Y-91000000D03*
%TO.P,SW2,2,2_2*%
%TO.N,Net-(D2-A)*%
X134560000Y-93540000D03*
%TD*%
D19*
%TO.P,D6,1,K_1*%
%TO.N,ROW1*%
X182000000Y-99620000D03*
D20*
%TO.P,D6,2,A_2*%
%TO.N,Net-(D6-A)*%
X182000000Y-92000000D03*
%TD*%
D21*
%TO.P,D5,1,K_1*%
%TO.N,ROW1*%
X182000000Y-75000000D03*
D20*
%TO.P,D5,2,A_2*%
%TO.N,Net-(D5-A)*%
X182000000Y-82620000D03*
%TD*%
D22*
%TO.P,D4,1,K_1*%
%TO.N,ROW1*%
X151405000Y-105605000D03*
D20*
%TO.P,D4,2,A_2*%
%TO.N,Net-(D4-A)*%
X143785000Y-105605000D03*
%TD*%
D22*
%TO.P,D3,1,K_1*%
%TO.N,ROW0*%
X144380000Y-69000000D03*
D20*
%TO.P,D3,2,A_2*%
%TO.N,Net-(D3-A)*%
X136760000Y-69000000D03*
%TD*%
D19*
%TO.P,D2,1,K_1*%
%TO.N,ROW0*%
X124000000Y-97810000D03*
D20*
%TO.P,D2,2,A_2*%
%TO.N,Net-(D2-A)*%
X124000000Y-90190000D03*
%TD*%
D19*
%TO.P,D1,1,K_1*%
%TO.N,ROW0*%
X124000000Y-81000000D03*
D20*
%TO.P,D1,2,A_2*%
%TO.N,Net-(D1-A)*%
X124000000Y-73380000D03*
%TD*%
D23*
%TO.N,ENC1_B*%
X163043593Y-50031553D03*
%TO.N,GND*%
X190000000Y-103000000D03*
X185000000Y-114400000D03*
X166000000Y-113000000D03*
X116850000Y-50850000D03*
X176000000Y-41000000D03*
X170000000Y-39000000D03*
X191000000Y-93000000D03*
X176000000Y-38530000D03*
X121000000Y-37000000D03*
X169271235Y-37330000D03*
X130000000Y-37197158D03*
%TO.N,COL0*%
X140000000Y-39000000D03*
X140000000Y-42000000D03*
%TO.N,VCC*%
X167000000Y-109000000D03*
X125000000Y-107000000D03*
X141000000Y-108400000D03*
X194000000Y-96000000D03*
X121000000Y-108000000D03*
X112000000Y-70000000D03*
X160400001Y-109400001D03*
X158641422Y-109207108D03*
X190950000Y-101000000D03*
X111147158Y-52599999D03*
%TO.N,Net-(D21-DOUT)*%
X131000000Y-49000000D03*
X128000000Y-39000000D03*
X128000000Y-42000000D03*
X193000000Y-55000000D03*
%TO.N,Net-(D20-DOUT)*%
X134266824Y-35120996D03*
X170000000Y-37000000D03*
%TO.N,COL1*%
X152925735Y-52925735D03*
X160000000Y-66000000D03*
X149000000Y-40830000D03*
X150000000Y-86000000D03*
X155000000Y-70000000D03*
X147000000Y-39000000D03*
X154000000Y-54000000D03*
%TO.N,Net-(D18-DOUT)*%
X122000000Y-39000000D03*
X123000000Y-41000000D03*
X189000000Y-65000000D03*
X129000000Y-52000000D03*
%TO.N,Net-(D13-DIN)*%
X115000000Y-46000000D03*
X113000000Y-46000000D03*
%TO.N,Net-(D19-DOUT)*%
X117000000Y-40000000D03*
X193000000Y-34000000D03*
%TO.N,COL2*%
X147000000Y-42000000D03*
X169000000Y-89000000D03*
X159000000Y-79000000D03*
X153000000Y-64000000D03*
X148000000Y-57000000D03*
%TO.N,Net-(D11-DOUT)*%
X135000000Y-113000000D03*
X184000000Y-108000000D03*
%TO.N,Net-(D10-DOUT)*%
X147000000Y-109000000D03*
X147000000Y-113000000D03*
%TO.N,Net-(D12-DOUT)*%
X174000000Y-39400000D03*
X170000000Y-55000000D03*
%TO.N,WS2812B*%
X164000000Y-64000000D03*
X162000000Y-56500000D03*
%TO.N,ROW1*%
X167651473Y-56500000D03*
X160000000Y-105000000D03*
X166000000Y-54000000D03*
X170000000Y-57000000D03*
X181000000Y-102000000D03*
%TD*%
%TO.N,ENC1_A*%
D24*
X167260000Y-43010000D02*
X146140000Y-43010000D01*
X170750000Y-46500000D02*
X167260000Y-43010000D01*
X146140000Y-43010000D02*
X144750000Y-41620000D01*
%TO.N,ENC1_B*%
X162075146Y-51000000D02*
X146510000Y-51000000D01*
X163043593Y-50031553D02*
X162075146Y-51000000D01*
X146510000Y-51000000D02*
X144750000Y-49240000D01*
%TO.N,GND*%
X176000000Y-41000000D02*
X176000000Y-38530000D01*
X128623717Y-37083455D02*
X128540262Y-37000000D01*
X185000000Y-114400000D02*
X167400000Y-114400000D01*
X190000000Y-96000000D02*
X191000000Y-95000000D01*
X170470000Y-38530000D02*
X176000000Y-38530000D01*
X190000000Y-103000000D02*
X190000000Y-96000000D01*
X160000000Y-36540000D02*
X168481235Y-36540000D01*
X191000000Y-95000000D02*
X191000000Y-93000000D01*
X128737420Y-37197158D02*
X130000000Y-37197158D01*
X128533290Y-37000000D02*
X128623717Y-37083455D01*
X116850000Y-50850000D02*
X116850000Y-60850000D01*
X167400000Y-114400000D02*
X166000000Y-113000000D01*
X128623717Y-37083455D02*
X128737420Y-37197158D01*
X168481235Y-36540000D02*
X169271235Y-37330000D01*
X170000000Y-39000000D02*
X170470000Y-38530000D01*
X121000000Y-37000000D02*
X128533290Y-37000000D01*
X116850000Y-60850000D02*
X118000000Y-62000000D01*
%TO.N,COL0*%
X156000000Y-91000000D02*
X140910000Y-75910000D01*
X140000000Y-42000000D02*
X140000000Y-39000000D01*
%TO.N,Net-(D1-A)*%
X129490000Y-73380000D02*
X134560000Y-78450000D01*
X124000000Y-73380000D02*
X129490000Y-73380000D01*
%TO.N,VCC*%
X166400000Y-108400000D02*
X161400002Y-108400000D01*
X190950000Y-101000000D02*
X190950000Y-98050000D01*
X158641422Y-109207108D02*
X157834314Y-108400000D01*
X157834314Y-108400000D02*
X141000000Y-108400000D01*
X112540000Y-70000000D02*
X112000000Y-70000000D01*
X125000000Y-107000000D02*
X124000000Y-108000000D01*
X111000000Y-57540000D02*
X111147158Y-57392842D01*
X167000000Y-109000000D02*
X166400000Y-108400000D01*
X118000000Y-64540000D02*
X112540000Y-70000000D01*
X193000000Y-96000000D02*
X194000000Y-96000000D01*
X161400002Y-108400000D02*
X160400001Y-109400001D01*
X190950000Y-98050000D02*
X193000000Y-96000000D01*
X124000000Y-108000000D02*
X121000000Y-108000000D01*
X111000000Y-52747157D02*
X111147158Y-52599999D01*
X111147158Y-57392842D02*
X111147158Y-52599999D01*
X118000000Y-64540000D02*
X111000000Y-57540000D01*
%TO.N,Net-(D21-DOUT)*%
X193000000Y-55000000D02*
X192100000Y-55900000D01*
X128000000Y-42000000D02*
X128000000Y-39000000D01*
X192100000Y-55900000D02*
X137900000Y-55900000D01*
X137900000Y-55900000D02*
X131000000Y-49000000D01*
%TO.N,Net-(D20-DOUT)*%
X168150000Y-35150000D02*
X170000000Y-37000000D01*
X134150000Y-35150000D02*
X168150000Y-35150000D01*
%TO.N,COL1*%
X145000000Y-91000000D02*
X150000000Y-86000000D01*
X156000000Y-70000000D02*
X160000000Y-66000000D01*
X149000000Y-40830000D02*
X148830000Y-40830000D01*
X140910000Y-91000000D02*
X145000000Y-91000000D01*
X169910000Y-75910000D02*
X160000000Y-66000000D01*
X154000000Y-54000000D02*
X152925735Y-52925735D01*
X148830000Y-40830000D02*
X147000000Y-39000000D01*
X171090000Y-75910000D02*
X169910000Y-75910000D01*
X155000000Y-70000000D02*
X156000000Y-70000000D01*
%TO.N,Net-(D18-DOUT)*%
X122000000Y-40000000D02*
X122000000Y-39000000D01*
X123000000Y-41000000D02*
X122000000Y-40000000D01*
X189000000Y-65000000D02*
X142000000Y-65000000D01*
X142000000Y-65000000D02*
X129000000Y-52000000D01*
%TO.N,Net-(D13-DIN)*%
X115000000Y-46000000D02*
X113000000Y-46000000D01*
%TO.N,Net-(D19-DOUT)*%
X117000000Y-40000000D02*
X119070000Y-37930000D01*
X195000000Y-36000000D02*
X193000000Y-34000000D01*
X119070000Y-37930000D02*
X193070000Y-37930000D01*
X193070000Y-37930000D02*
X195000000Y-36000000D01*
%TO.N,COL2*%
X144750000Y-39080000D02*
X144750000Y-39750000D01*
X153000000Y-62000000D02*
X153000000Y-64000000D01*
X148000000Y-57000000D02*
X153000000Y-62000000D01*
X144750000Y-39750000D02*
X147000000Y-42000000D01*
X159000000Y-79000000D02*
X169000000Y-89000000D01*
%TO.N,Net-(D4-A)*%
X149650000Y-99740000D02*
X149650000Y-93540000D01*
X143785000Y-105605000D02*
X149650000Y-99740000D01*
%TO.N,Net-(D3-A)*%
X138760000Y-67000000D02*
X136760000Y-69000000D01*
X149650000Y-78450000D02*
X149650000Y-72385256D01*
X144264744Y-67000000D02*
X138760000Y-67000000D01*
X149650000Y-72385256D02*
X144264744Y-67000000D01*
%TO.N,Net-(D11-DOUT)*%
X135000000Y-113000000D02*
X141000000Y-107000000D01*
X141000000Y-107000000D02*
X183000000Y-107000000D01*
X183000000Y-107000000D02*
X184000000Y-108000000D01*
%TO.N,Net-(D10-DOUT)*%
X147000000Y-113000000D02*
X147000000Y-109000000D01*
%TO.N,Net-(D12-DOUT)*%
X174000000Y-39400000D02*
X174000000Y-51000000D01*
X174000000Y-51000000D02*
X170000000Y-55000000D01*
%TO.N,WS2812B*%
X164000000Y-64000000D02*
X162000000Y-62000000D01*
X162000000Y-62000000D02*
X162000000Y-56500000D01*
%TO.N,SDA*%
X118000000Y-56920000D02*
X130760000Y-44160000D01*
X130760000Y-44160000D02*
X144750000Y-44160000D01*
%TO.N,SCL*%
X118000000Y-59460000D02*
X130760000Y-46700000D01*
X130760000Y-46700000D02*
X144750000Y-46700000D01*
%TO.N,ROW0*%
X136000000Y-72000000D02*
X139000000Y-69000000D01*
X122900000Y-72100000D02*
X123000000Y-72000000D01*
X124000000Y-97810000D02*
X122900000Y-96710000D01*
X122900000Y-96710000D02*
X122900000Y-82100000D01*
X122900000Y-79900000D02*
X122900000Y-72100000D01*
X124000000Y-81000000D02*
X122900000Y-79900000D01*
X123000000Y-72000000D02*
X136000000Y-72000000D01*
X139000000Y-69000000D02*
X144380000Y-69000000D01*
X122900000Y-82100000D02*
X124000000Y-81000000D01*
%TO.N,ROW1*%
X178000000Y-105000000D02*
X181000000Y-102000000D01*
X166000000Y-54000000D02*
X166000000Y-49000000D01*
X169500000Y-56500000D02*
X167651473Y-56500000D01*
X166000000Y-49000000D02*
X161160000Y-44160000D01*
X161160000Y-44160000D02*
X160000000Y-44160000D01*
X160000000Y-105000000D02*
X178000000Y-105000000D01*
X170000000Y-57000000D02*
X169500000Y-56500000D01*
%TO.N,Net-(D2-A)*%
X134560000Y-93540000D02*
X127350000Y-93540000D01*
X127350000Y-93540000D02*
X124000000Y-90190000D01*
%TD*%
M02*
