%TF.GenerationSoftware,KiCad,Pcbnew,10.0.5*%
%TF.CreationDate,2026-09-26T23:26:04+05:30*%
%TF.ProjectId,PCB,5043422e-6b69-4636-9164-5f7063625858,rev?*%
%TF.SameCoordinates,Original*%
%TF.FileFunction,Copper,L2,Bot*%
%TF.FilePolarity,Positive*%
%FSLAX46Y46*%
G04 Gerber Fmt 4.6, Leading zero omitted, Abs format (unit mm)*
G04 Created by KiCad (PCBNEW 10.0.5) date 2026-09-26 23:26:04*
%MOMM*%
%LPD*%
G01*
G04 APERTURE LIST*
G04 Aperture macros list*
%AMRoundRect*
0 Rectangle with rounded corners*
0 $1 Rounding radius*
0 $2 $3 $4 $5 $6 $7 $8 $9 X,Y pos of 4 corners*
0 Add a 4 corners polygon primitive as box body*
4,1,4,$2,$3,$4,$5,$6,$7,$8,$9,$2,$3,0*
0 Add four circle primitives for the rounded corners*
1,1,$1+$1,$2,$3*
1,1,$1+$1,$4,$5*
1,1,$1+$1,$6,$7*
1,1,$1+$1,$8,$9*
0 Add four rect primitives between the rounded corners*
20,1,$1+$1,$2,$3,$4,$5,0*
20,1,$1+$1,$4,$5,$6,$7,0*
20,1,$1+$1,$6,$7,$8,$9,0*
20,1,$1+$1,$8,$9,$2,$3,0*%
G04 Aperture macros list end*
%TA.AperFunction,ComponentPad*%
%ADD10R,2.000000X2.000000*%
%TD*%
%TA.AperFunction,ComponentPad*%
%ADD11C,2.000000*%
%TD*%
%TA.AperFunction,ComponentPad*%
%ADD12R,3.200000X2.000000*%
%TD*%
%TA.AperFunction,ComponentPad*%
%ADD13C,2.200000*%
%TD*%
%TA.AperFunction,SMDPad,CuDef*%
%ADD14RoundRect,0.082000X0.328000X0.718000X-0.328000X0.718000X-0.328000X-0.718000X0.328000X-0.718000X0*%
%TD*%
%TA.AperFunction,SMDPad,CuDef*%
%ADD15RoundRect,0.082000X-0.718000X0.328000X-0.718000X-0.328000X0.718000X-0.328000X0.718000X0.328000X0*%
%TD*%
%TA.AperFunction,SMDPad,CuDef*%
%ADD16RoundRect,0.082000X-0.328000X-0.718000X0.328000X-0.718000X0.328000X0.718000X-0.328000X0.718000X0*%
%TD*%
%TA.AperFunction,ComponentPad*%
%ADD17R,3.500000X1.700000*%
%TD*%
%TA.AperFunction,ComponentPad*%
%ADD18O,3.600000X1.700000*%
%TD*%
%TA.AperFunction,ComponentPad*%
%ADD19O,3.700000X1.700000*%
%TD*%
%TA.AperFunction,ComponentPad*%
%ADD20R,1.700000X1.700000*%
%TD*%
%TA.AperFunction,ComponentPad*%
%ADD21C,1.700000*%
%TD*%
%TA.AperFunction,ComponentPad*%
%ADD22RoundRect,0.250000X0.550000X-0.550000X0.550000X0.550000X-0.550000X0.550000X-0.550000X-0.550000X0*%
%TD*%
%TA.AperFunction,ComponentPad*%
%ADD23C,1.600000*%
%TD*%
%TA.AperFunction,ComponentPad*%
%ADD24RoundRect,0.250000X-0.550000X0.550000X-0.550000X-0.550000X0.550000X-0.550000X0.550000X0.550000X0*%
%TD*%
%TA.AperFunction,ComponentPad*%
%ADD25RoundRect,0.250000X0.550000X0.550000X-0.550000X0.550000X-0.550000X-0.550000X0.550000X-0.550000X0*%
%TD*%
%TA.AperFunction,ViaPad*%
%ADD26C,0.600000*%
%TD*%
%TA.AperFunction,Conductor*%
%ADD27C,0.200000*%
%TD*%
G04 APERTURE END LIST*
D10*
%TO.P,SW7,A,A_A*%
%TO.N,ENC1_A*%
X170750000Y-46500000D03*
D11*
%TO.P,SW7,B,B_B*%
%TO.N,ENC1_B*%
X170750000Y-51500000D03*
%TO.P,SW7,C,C_C*%
%TO.N,GND*%
X170750000Y-49000000D03*
D12*
%TO.P,SW7,MP*%
%TO.N,N/C*%
X178250000Y-43400000D03*
X178250000Y-54600000D03*
D11*
%TO.P,SW7,S1,S1_S1*%
%TO.N,ENC1_SW*%
X185250000Y-51500000D03*
%TO.P,SW7,S2,S2_S2*%
%TO.N,GND*%
X185250000Y-46500000D03*
%TD*%
D13*
%TO.P,SW1,1,1_1*%
%TO.N,COL0*%
X140910000Y-75910000D03*
%TO.P,SW1,2,2_2*%
%TO.N,Net-(D1-A)*%
X134560000Y-78450000D03*
%TD*%
D14*
%TO.P,D17,1,VDD_1*%
%TO.N,VCC*%
X193252841Y-81900001D03*
%TO.P,D17,2,DOUT_2*%
%TO.N,Net-(D17-DOUT)*%
X191752841Y-81900001D03*
%TO.P,D17,3,VSS_3*%
%TO.N,GND*%
X191752841Y-87100001D03*
%TO.P,D17,4,DIN_4*%
%TO.N,Net-(D16-DOUT)*%
X193252841Y-87100001D03*
%TD*%
D15*
%TO.P,D21,1,VDD_1*%
%TO.N,VCC*%
X127800000Y-34147158D03*
%TO.P,D21,2,DOUT_2*%
%TO.N,Net-(D21-DOUT)*%
X127800000Y-35647158D03*
%TO.P,D21,3,VSS_3*%
%TO.N,GND*%
X133000000Y-35647158D03*
%TO.P,D21,4,DIN_4*%
%TO.N,Net-(D20-DOUT)*%
X133000000Y-34147158D03*
%TD*%
D16*
%TO.P,D9,1,VDD_1*%
%TO.N,VCC*%
X111147158Y-103599999D03*
%TO.P,D9,2,DOUT_2*%
%TO.N,Net-(D10-DIN)*%
X112647158Y-103599999D03*
%TO.P,D9,3,VSS_3*%
%TO.N,GND*%
X112647158Y-98399999D03*
%TO.P,D9,4,DIN_4*%
%TO.N,Net-(D14-DOUT)*%
X111147158Y-98399999D03*
%TD*%
D13*
%TO.P,SW5,1,1_1*%
%TO.N,COL1*%
X171090000Y-75910000D03*
%TO.P,SW5,2,2_2*%
%TO.N,Net-(D5-A)*%
X164740000Y-78450000D03*
%TD*%
D14*
%TO.P,D18,1,VDD_1*%
%TO.N,VCC*%
X192852842Y-65400001D03*
%TO.P,D18,2,DOUT_2*%
%TO.N,Net-(D18-DOUT)*%
X191352842Y-65400001D03*
%TO.P,D18,3,VSS_3*%
%TO.N,GND*%
X191352842Y-70600001D03*
%TO.P,D18,4,DIN_4*%
%TO.N,Net-(D17-DOUT)*%
X192852842Y-70600001D03*
%TD*%
D16*
%TO.P,D13,1,VDD_1*%
%TO.N,VCC*%
X111147158Y-52599999D03*
%TO.P,D13,2,DOUT_2*%
%TO.N,Net-(D13-DOUT)*%
X112647158Y-52599999D03*
%TO.P,D13,3,VSS_3*%
%TO.N,GND*%
X112647158Y-47399999D03*
%TO.P,D13,4,DIN_4*%
%TO.N,Net-(D13-DIN)*%
X111147158Y-47399999D03*
%TD*%
D15*
%TO.P,D19,1,VDD_1*%
%TO.N,VCC*%
X113800000Y-34147158D03*
%TO.P,D19,2,DOUT_2*%
%TO.N,Net-(D19-DOUT)*%
X113800000Y-35647158D03*
%TO.P,D19,3,VSS_3*%
%TO.N,GND*%
X119000000Y-35647158D03*
%TO.P,D19,4,DIN_4*%
%TO.N,Net-(D18-DOUT)*%
X119000000Y-34147158D03*
%TD*%
D13*
%TO.P,SW6,1,1_1*%
%TO.N,COL2*%
X171090000Y-91000000D03*
%TO.P,SW6,2,2_2*%
%TO.N,Net-(D6-A)*%
X164740000Y-93540000D03*
%TD*%
%TO.P,SW4,1,1_1*%
%TO.N,COL0*%
X156000000Y-91000000D03*
%TO.P,SW4,2,2_2*%
%TO.N,Net-(D4-A)*%
X149650000Y-93540000D03*
%TD*%
D14*
%TO.P,D22,1,VDD_1*%
%TO.N,VCC*%
X193252841Y-47400001D03*
%TO.P,D22,2,DOUT_2*%
%TO.N,unconnected-(D22-DOUT-Pad2)*%
X191752841Y-47400001D03*
%TO.P,D22,3,VSS_3*%
%TO.N,GND*%
X191752841Y-52600001D03*
%TO.P,D22,4,DIN_4*%
%TO.N,Net-(D21-DOUT)*%
X193252841Y-52600001D03*
%TD*%
D13*
%TO.P,SW3,1,1_1*%
%TO.N,COL2*%
X156000000Y-75910000D03*
%TO.P,SW3,2,2_2*%
%TO.N,Net-(D3-A)*%
X149650000Y-78450000D03*
%TD*%
D15*
%TO.P,D11,1,VDD_1*%
%TO.N,VCC*%
X139400001Y-110147158D03*
%TO.P,D11,2,DOUT_2*%
%TO.N,Net-(D11-DOUT)*%
X139400001Y-111647158D03*
%TO.P,D11,3,VSS_3*%
%TO.N,GND*%
X144600001Y-111647158D03*
%TO.P,D11,4,DIN_4*%
%TO.N,Net-(D10-DOUT)*%
X144600001Y-110147158D03*
%TD*%
%TO.P,D15,1,VDD_1*%
%TO.N,VCC*%
X180800000Y-110147158D03*
%TO.P,D15,2,DOUT_2*%
%TO.N,Net-(D15-DOUT)*%
X180800000Y-111647158D03*
%TO.P,D15,3,VSS_3*%
%TO.N,GND*%
X186000000Y-111647158D03*
%TO.P,D15,4,DIN_4*%
%TO.N,Net-(D11-DOUT)*%
X186000000Y-110147158D03*
%TD*%
%TO.P,D12,1,VDD_1*%
%TO.N,VCC*%
X160400001Y-110147158D03*
%TO.P,D12,2,DOUT_2*%
%TO.N,Net-(D12-DOUT)*%
X160400001Y-111647158D03*
%TO.P,D12,3,VSS_3*%
%TO.N,GND*%
X165600001Y-111647158D03*
%TO.P,D12,4,DIN_4*%
%TO.N,WS2812B*%
X165600001Y-110147158D03*
%TD*%
%TO.P,D20,1,VDD_1*%
%TO.N,VCC*%
X185800000Y-34147158D03*
%TO.P,D20,2,DOUT_2*%
%TO.N,Net-(D20-DOUT)*%
X185800000Y-35647158D03*
%TO.P,D20,3,VSS_3*%
%TO.N,GND*%
X191000000Y-35647158D03*
%TO.P,D20,4,DIN_4*%
%TO.N,Net-(D19-DOUT)*%
X191000000Y-34147158D03*
%TD*%
D17*
%TO.P,U1,1,PA02_A0_D0_1*%
%TO.N,COL0*%
X143750000Y-34000000D03*
D18*
%TO.P,U1,2,PA4_A1_D1_2*%
%TO.N,COL1*%
X143750000Y-36540000D03*
%TO.P,U1,3,PA10_A2_D2_3*%
%TO.N,COL2*%
X143750000Y-39080000D03*
%TO.P,U1,4,PA11_A3_D3_4*%
%TO.N,ENC1_A*%
X143750000Y-41620000D03*
%TO.P,U1,5,PA8_A4_D4_SDA_5*%
%TO.N,SDA*%
X143750000Y-44160000D03*
%TO.P,U1,6,PA9_A5_D5_SCL_6*%
%TO.N,SCL*%
X143750000Y-46700000D03*
%TO.P,U1,7,PB08_A6_D6_TX_7*%
%TO.N,ENC1_B*%
X143750000Y-49240000D03*
%TO.P,U1,8,PB09_A7_D7_RX_8*%
%TO.N,ENC1_SW*%
X161000000Y-49240000D03*
%TO.P,U1,9,PA7_A8_D8_SCK_9*%
%TO.N,ROW0*%
X161000000Y-46700000D03*
%TO.P,U1,10,PA5_A9_D9_MISO_10*%
%TO.N,ROW1*%
X161000000Y-44160000D03*
D19*
%TO.P,U1,11,PA6_A10_D10_MOSI_11*%
%TO.N,WS2812B*%
X161000000Y-41620000D03*
%TO.P,U1,12,3V3_12*%
%TO.N,unconnected-(U1-3V3-Pad12)*%
X161000000Y-39080000D03*
%TO.P,U1,13,GND_13*%
%TO.N,GND*%
X161000000Y-36540000D03*
%TO.P,U1,14,5V_14*%
%TO.N,VCC*%
X161000000Y-34000000D03*
%TD*%
D16*
%TO.P,D14,1,VDD_1*%
%TO.N,VCC*%
X111147158Y-87099999D03*
%TO.P,D14,2,DOUT_2*%
%TO.N,Net-(D14-DOUT)*%
X112647158Y-87099999D03*
%TO.P,D14,3,VSS_3*%
%TO.N,GND*%
X112647158Y-81899999D03*
%TO.P,D14,4,DIN_4*%
%TO.N,Net-(D14-DIN)*%
X111147158Y-81899999D03*
%TD*%
D14*
%TO.P,D16,1,VDD_1*%
%TO.N,VCC*%
X194000000Y-98400001D03*
%TO.P,D16,2,DOUT_2*%
%TO.N,Net-(D16-DOUT)*%
X192500000Y-98400001D03*
%TO.P,D16,3,VSS_3*%
%TO.N,GND*%
X192500000Y-103600001D03*
%TO.P,D16,4,DIN_4*%
%TO.N,Net-(D15-DOUT)*%
X194000000Y-103600001D03*
%TD*%
D20*
%TO.P,J1,1,Pin_1_1*%
%TO.N,SDA*%
X118000000Y-56920000D03*
D21*
%TO.P,J1,2,Pin_2_2*%
%TO.N,SCL*%
X118000000Y-59460000D03*
%TO.P,J1,3,Pin_3_3*%
%TO.N,GND*%
X118000000Y-62000000D03*
%TO.P,J1,4,Pin_4_4*%
%TO.N,VCC*%
X118000000Y-64540000D03*
%TD*%
D15*
%TO.P,D7,1,VDD_1*%
%TO.N,VCC*%
X169400001Y-34147158D03*
%TO.P,D7,2,DOUT_2*%
%TO.N,Net-(D13-DIN)*%
X169400001Y-35647158D03*
%TO.P,D7,3,VSS_3*%
%TO.N,GND*%
X174600001Y-35647158D03*
%TO.P,D7,4,DIN_4*%
%TO.N,Net-(D12-DOUT)*%
X174600001Y-34147158D03*
%TD*%
D13*
%TO.P,SW2,1,1_1*%
%TO.N,COL1*%
X140910000Y-91000000D03*
%TO.P,SW2,2,2_2*%
%TO.N,Net-(D2-A)*%
X134560000Y-93540000D03*
%TD*%
D15*
%TO.P,D10,1,VDD_1*%
%TO.N,VCC*%
X119400001Y-110147158D03*
%TO.P,D10,2,DOUT_2*%
%TO.N,Net-(D10-DOUT)*%
X119400001Y-111647158D03*
%TO.P,D10,3,VSS_3*%
%TO.N,GND*%
X124600001Y-111647158D03*
%TO.P,D10,4,DIN_4*%
%TO.N,Net-(D10-DIN)*%
X124600001Y-110147158D03*
%TD*%
D16*
%TO.P,D8,1,VDD_1*%
%TO.N,VCC*%
X111147158Y-68599999D03*
%TO.P,D8,2,DOUT_2*%
%TO.N,Net-(D14-DIN)*%
X112647158Y-68599999D03*
%TO.P,D8,3,VSS_3*%
%TO.N,GND*%
X112647158Y-63399999D03*
%TO.P,D8,4,DIN_4*%
%TO.N,Net-(D13-DOUT)*%
X111147158Y-63399999D03*
%TD*%
D22*
%TO.P,D6,1,K_1*%
%TO.N,ROW1*%
X182000000Y-99620000D03*
D23*
%TO.P,D6,2,A_2*%
%TO.N,Net-(D6-A)*%
X182000000Y-92000000D03*
%TD*%
D24*
%TO.P,D5,1,K_1*%
%TO.N,ROW1*%
X182000000Y-75000000D03*
D23*
%TO.P,D5,2,A_2*%
%TO.N,Net-(D5-A)*%
X182000000Y-82620000D03*
%TD*%
D25*
%TO.P,D4,1,K_1*%
%TO.N,ROW1*%
X151405000Y-105605000D03*
D23*
%TO.P,D4,2,A_2*%
%TO.N,Net-(D4-A)*%
X143785000Y-105605000D03*
%TD*%
D25*
%TO.P,D3,1,K_1*%
%TO.N,ROW0*%
X144380000Y-69000000D03*
D23*
%TO.P,D3,2,A_2*%
%TO.N,Net-(D3-A)*%
X136760000Y-69000000D03*
%TD*%
D22*
%TO.P,D2,1,K_1*%
%TO.N,ROW0*%
X124000000Y-97810000D03*
D23*
%TO.P,D2,2,A_2*%
%TO.N,Net-(D2-A)*%
X124000000Y-90190000D03*
%TD*%
D22*
%TO.P,D1,1,K_1*%
%TO.N,ROW0*%
X124000000Y-81000000D03*
D23*
%TO.P,D1,2,A_2*%
%TO.N,Net-(D1-A)*%
X124000000Y-73380000D03*
%TD*%
D26*
%TO.N,ENC1_B*%
X163043593Y-50031553D03*
%TO.N,GND*%
X190000000Y-103000000D03*
X185000000Y-114400000D03*
X166000000Y-113000000D03*
X116850000Y-50850000D03*
X176000000Y-41000000D03*
X170000000Y-39000000D03*
X191000000Y-93000000D03*
X176000000Y-38530000D03*
X121000000Y-37000000D03*
X169271235Y-37330000D03*
X130000000Y-37197158D03*
%TO.N,COL0*%
X140000000Y-39000000D03*
X140000000Y-42000000D03*
%TO.N,VCC*%
X167000000Y-109000000D03*
X125000000Y-107000000D03*
X141000000Y-108400000D03*
X194000000Y-96000000D03*
X121000000Y-108000000D03*
X112000000Y-70000000D03*
X160400001Y-109400001D03*
X158641422Y-109207108D03*
X190950000Y-101000000D03*
X111147158Y-52599999D03*
%TO.N,Net-(D21-DOUT)*%
X131000000Y-49000000D03*
X128000000Y-39000000D03*
X128000000Y-42000000D03*
X193000000Y-55000000D03*
%TO.N,Net-(D20-DOUT)*%
X134266824Y-35120996D03*
X170000000Y-37000000D03*
%TO.N,COL1*%
X152925735Y-52925735D03*
X160000000Y-66000000D03*
X149000000Y-40830000D03*
X150000000Y-86000000D03*
X155000000Y-70000000D03*
X147000000Y-39000000D03*
X154000000Y-54000000D03*
%TO.N,Net-(D18-DOUT)*%
X122000000Y-39000000D03*
X123000000Y-41000000D03*
X189000000Y-65000000D03*
X129000000Y-52000000D03*
%TO.N,Net-(D13-DIN)*%
X115000000Y-46000000D03*
X113000000Y-46000000D03*
%TO.N,Net-(D19-DOUT)*%
X117000000Y-40000000D03*
X193000000Y-34000000D03*
%TO.N,COL2*%
X147000000Y-42000000D03*
X169000000Y-89000000D03*
X159000000Y-79000000D03*
X153000000Y-64000000D03*
X148000000Y-57000000D03*
%TO.N,Net-(D11-DOUT)*%
X135000000Y-113000000D03*
X184000000Y-108000000D03*
%TO.N,Net-(D10-DOUT)*%
X147000000Y-109000000D03*
X147000000Y-113000000D03*
%TO.N,Net-(D12-DOUT)*%
X174000000Y-39400000D03*
X170000000Y-55000000D03*
%TO.N,WS2812B*%
X164000000Y-64000000D03*
X162000000Y-56500000D03*
%TO.N,ROW1*%
X167651473Y-56500000D03*
X160000000Y-105000000D03*
X166000000Y-54000000D03*
X170000000Y-57000000D03*
X181000000Y-102000000D03*
%TD*%
%TO.N,ENC1_B*%
D27*
X170750000Y-51500000D02*
X169281553Y-50031553D01*
X169281553Y-50031553D02*
X163043593Y-50031553D01*
%TO.N,GND*%
X112647158Y-47399999D02*
X113399999Y-47399999D01*
X144600001Y-111647158D02*
X144600001Y-113399999D01*
X189000000Y-72952843D02*
X191352842Y-70600001D01*
X169271235Y-38271235D02*
X170000000Y-39000000D01*
X185250000Y-46500000D02*
X191000000Y-40750000D01*
X160357158Y-112357158D02*
X162000000Y-114000000D01*
X191000000Y-70952843D02*
X189952843Y-70952843D01*
X191352842Y-70600001D02*
X191000000Y-70952843D01*
X113023579Y-47023579D02*
X119000000Y-41047157D01*
X165600001Y-111647158D02*
X165600001Y-112600001D01*
X192500000Y-105947158D02*
X192500000Y-103600001D01*
X173250000Y-46500000D02*
X185250000Y-46500000D01*
X165600001Y-112600001D02*
X166000000Y-113000000D01*
X113399999Y-47399999D02*
X116850000Y-50850000D01*
X191752841Y-92247159D02*
X191752841Y-87100001D01*
X186800000Y-111647158D02*
X192500000Y-105947158D01*
X174600001Y-35647158D02*
X174647158Y-35647158D01*
X169271235Y-37330000D02*
X169271235Y-38271235D01*
X132802842Y-37197158D02*
X133000000Y-37000000D01*
X113023578Y-47023579D02*
X113023579Y-47023579D01*
X191752841Y-58247159D02*
X191752841Y-52600001D01*
X188000000Y-51000000D02*
X188000000Y-49250000D01*
X186000000Y-113400000D02*
X185000000Y-114400000D01*
X191000000Y-93000000D02*
X191752841Y-92247159D01*
X116000000Y-78547157D02*
X116000000Y-67000000D01*
X112647158Y-47399999D02*
X113023578Y-47023579D01*
X116000000Y-67000000D02*
X114113582Y-65113582D01*
X113899999Y-81899999D02*
X112647158Y-81899999D01*
X119000000Y-35647158D02*
X119647158Y-35647158D01*
X188000000Y-62000000D02*
X191752841Y-58247159D01*
X162000000Y-114000000D02*
X165000000Y-114000000D01*
X124600001Y-111647158D02*
X125400001Y-111647158D01*
X114113582Y-65012028D02*
X114119657Y-65000000D01*
X170750000Y-49000000D02*
X173250000Y-46500000D01*
X114399999Y-63399999D02*
X116600001Y-63399999D01*
X114965684Y-98399999D02*
X112647158Y-98399999D01*
X119000000Y-41047157D02*
X119000000Y-35647158D01*
X144600001Y-113399999D02*
X144400000Y-113600000D01*
X188000000Y-49250000D02*
X185250000Y-46500000D01*
X192500000Y-103600001D02*
X190600001Y-103600001D01*
X191100001Y-87100001D02*
X189000000Y-85000000D01*
X144400000Y-113600000D02*
X126552843Y-113600000D01*
X186000000Y-111647158D02*
X186000000Y-113400000D01*
X190600001Y-103600001D02*
X190000000Y-103000000D01*
X116000000Y-84000000D02*
X113899999Y-81899999D01*
X119647158Y-35647158D02*
X121000000Y-37000000D01*
X176000000Y-43750000D02*
X176000000Y-41000000D01*
X191752841Y-52600001D02*
X189600001Y-52600001D01*
X125400001Y-111647158D02*
X125700001Y-111347158D01*
X145310001Y-112357158D02*
X160357158Y-112357158D01*
X130000000Y-37197158D02*
X132802842Y-37197158D01*
X133000000Y-37000000D02*
X133000000Y-35647158D01*
X112647158Y-98399999D02*
X116000000Y-95047157D01*
X174647158Y-35647158D02*
X176000000Y-37000000D01*
X116000000Y-95047157D02*
X116000000Y-84000000D01*
X125700001Y-109134316D02*
X114965684Y-98399999D01*
X191752841Y-87100001D02*
X191100001Y-87100001D01*
X112647158Y-81899999D02*
X116000000Y-78547157D01*
X125700001Y-111347158D02*
X125700001Y-109134316D01*
X186000000Y-111647158D02*
X186800000Y-111647158D01*
X189000000Y-85000000D02*
X189000000Y-72952843D01*
X176000000Y-38530000D02*
X176000000Y-37000000D01*
X114399999Y-63399999D02*
X115000000Y-64000000D01*
X114119657Y-65000000D02*
X114159275Y-64921564D01*
X114119657Y-64880343D02*
X114119657Y-65000000D01*
X114113582Y-65113582D02*
X114113582Y-65012028D01*
X144600001Y-111647158D02*
X145310001Y-112357158D01*
X112647158Y-63399999D02*
X114399999Y-63399999D01*
X115000000Y-64000000D02*
X114119657Y-64880343D01*
X191000000Y-40750000D02*
X191000000Y-35647158D01*
X116600001Y-63399999D02*
X118000000Y-62000000D01*
X188000000Y-69000000D02*
X188000000Y-62000000D01*
X189600001Y-52600001D02*
X188000000Y-51000000D01*
X165000000Y-114000000D02*
X166000000Y-113000000D01*
X173250000Y-46500000D02*
X176000000Y-43750000D01*
X126552843Y-113600000D02*
X124600001Y-111647158D01*
X189952843Y-70952843D02*
X188000000Y-69000000D01*
%TO.N,ENC1_SW*%
X183950000Y-52800000D02*
X163560000Y-52800000D01*
X163560000Y-52800000D02*
X160000000Y-49240000D01*
X185250000Y-51500000D02*
X183950000Y-52800000D01*
%TO.N,COL0*%
X140910000Y-75910000D02*
X140910000Y-42910000D01*
X140910000Y-42910000D02*
X140000000Y-42000000D01*
X140000000Y-39000000D02*
X140000000Y-37713654D01*
X143713654Y-34000000D02*
X144750000Y-34000000D01*
X140000000Y-37713654D02*
X143713654Y-34000000D01*
%TO.N,VCC*%
X112000000Y-70000000D02*
X111147158Y-69147158D01*
X160147158Y-34147158D02*
X160000000Y-34000000D01*
X121000000Y-108000000D02*
X119147158Y-108000000D01*
X180800000Y-110147158D02*
X180800000Y-109200000D01*
X159581472Y-110147158D02*
X158641422Y-109207108D01*
X119147158Y-108000000D02*
X117000000Y-110147158D01*
X141000000Y-108000000D02*
X141000000Y-108400000D01*
X192852842Y-65400001D02*
X195000000Y-63252843D01*
X193900001Y-81900001D02*
X196000000Y-84000000D01*
X194000000Y-96000000D02*
X194000000Y-98400001D01*
X193252841Y-47400001D02*
X194599999Y-47400001D01*
X111147158Y-94852842D02*
X111147158Y-87099999D01*
X111147158Y-103599999D02*
X109599999Y-103599999D01*
X191000000Y-33000000D02*
X192848529Y-33000000D01*
X108600000Y-52000000D02*
X108600000Y-34000000D01*
X196000000Y-84000000D02*
X196000000Y-94000000D01*
X192848529Y-33000000D02*
X194950000Y-35101471D01*
X195000000Y-66893747D02*
X195000000Y-80152842D01*
X195000000Y-47000000D02*
X194599999Y-47400001D01*
X186000000Y-33000000D02*
X187000000Y-32000000D01*
X186000000Y-33947158D02*
X186000000Y-33000000D01*
X188000000Y-104000000D02*
X191000000Y-101000000D01*
X108600000Y-34000000D02*
X108747158Y-34147158D01*
X111147158Y-87099999D02*
X111047159Y-87000000D01*
X195000000Y-63252843D02*
X195000000Y-47000000D01*
X139400001Y-110147158D02*
X139400001Y-107599999D01*
X187000000Y-32000000D02*
X190000000Y-32000000D01*
X160400001Y-109400001D02*
X160400001Y-110147158D01*
X113800000Y-32200000D02*
X114000000Y-32000000D01*
X109199999Y-52599999D02*
X108600000Y-52000000D01*
X117000000Y-110147158D02*
X116894317Y-110147158D01*
X193506254Y-65400001D02*
X195000000Y-66893747D01*
X111147158Y-52599999D02*
X109199999Y-52599999D01*
X109000000Y-103000000D02*
X109000000Y-97000000D01*
X111147158Y-104399999D02*
X111147158Y-103599999D01*
X169400001Y-34147158D02*
X160147158Y-34147158D01*
X180800000Y-110147158D02*
X180837747Y-110147158D01*
X109000000Y-97000000D02*
X111147158Y-94852842D01*
X111047159Y-87000000D02*
X108600000Y-87000000D01*
X186000000Y-33947158D02*
X185800000Y-34147158D01*
X113800000Y-34147158D02*
X113800000Y-32200000D01*
X111147158Y-69147158D02*
X111147158Y-68599999D01*
X180837747Y-110147158D02*
X181000110Y-109984795D01*
X183652842Y-32000000D02*
X185800000Y-34147158D01*
X180800000Y-110147158D02*
X179652842Y-109000000D01*
X169400001Y-34147158D02*
X169400001Y-32599999D01*
X196000000Y-94000000D02*
X194000000Y-96000000D01*
X160400001Y-110147158D02*
X159581472Y-110147158D01*
X116894317Y-110147158D02*
X111147158Y-104399999D01*
X194950000Y-45702842D02*
X193252841Y-47400001D01*
X170000000Y-32000000D02*
X183652842Y-32000000D01*
X139400001Y-110147158D02*
X128147158Y-110147158D01*
X108600000Y-87000000D02*
X108600000Y-71147157D01*
X192852842Y-65400001D02*
X193506254Y-65400001D01*
X186000000Y-104000000D02*
X188000000Y-104000000D01*
X181000110Y-109984795D02*
X180961511Y-109890178D01*
X193252841Y-81900001D02*
X193900001Y-81900001D01*
X190000000Y-32000000D02*
X191000000Y-33000000D01*
X194950000Y-35101471D02*
X194950000Y-45702842D01*
X195000000Y-80152842D02*
X193252841Y-81900001D01*
X191000000Y-101000000D02*
X190950000Y-101000000D01*
X139400001Y-107599999D02*
X140000000Y-107000000D01*
X109599999Y-103599999D02*
X109000000Y-103000000D01*
X126000000Y-32000000D02*
X126000000Y-32347158D01*
X180800000Y-109200000D02*
X186000000Y-104000000D01*
X128147158Y-110147158D02*
X125000000Y-107000000D01*
X140000000Y-107000000D02*
X141000000Y-108000000D01*
X179652842Y-109000000D02*
X167000000Y-109000000D01*
X169400001Y-32599999D02*
X170000000Y-32000000D01*
X126000000Y-32347158D02*
X127800000Y-34147158D01*
X114000000Y-32000000D02*
X126000000Y-32000000D01*
X108747158Y-34147158D02*
X113800000Y-34147158D01*
X119400001Y-110147158D02*
X117000000Y-110147158D01*
X108600000Y-71147157D02*
X111147158Y-68599999D01*
%TO.N,Net-(D17-DOUT)*%
X192852842Y-80000000D02*
X192852842Y-70600001D01*
X191752841Y-81900001D02*
X191752841Y-81100001D01*
X191752841Y-81100001D02*
X192852842Y-80000000D01*
%TO.N,Net-(D16-DOUT)*%
X192500000Y-98400001D02*
X192500000Y-87852842D01*
X192500000Y-87852842D02*
X193252841Y-87100001D01*
%TO.N,Net-(D21-DOUT)*%
X128000000Y-39000000D02*
X127800000Y-38800000D01*
X193252841Y-52600001D02*
X193252841Y-54747159D01*
X128000000Y-46000000D02*
X128000000Y-42000000D01*
X127800000Y-38800000D02*
X127800000Y-35647158D01*
X193252841Y-54747159D02*
X193000000Y-55000000D01*
X131000000Y-49000000D02*
X128000000Y-46000000D01*
%TO.N,Net-(D20-DOUT)*%
X170000000Y-38000000D02*
X170000000Y-37000000D01*
X172000000Y-40000000D02*
X170000000Y-38000000D01*
X172000000Y-40000000D02*
X182000000Y-40000000D01*
X183447158Y-38000000D02*
X185800000Y-35647158D01*
X133292986Y-34147158D02*
X134266824Y-35120996D01*
X182000000Y-40000000D02*
X183447158Y-38552842D01*
X183447158Y-38552842D02*
X183447158Y-38000000D01*
X133000000Y-34147158D02*
X133292986Y-34147158D01*
%TO.N,Net-(D10-DIN)*%
X114047159Y-105000000D02*
X112647158Y-103599999D01*
X124600001Y-108600001D02*
X121000000Y-105000000D01*
X124600001Y-110147158D02*
X124600001Y-108600001D01*
X121000000Y-105000000D02*
X114047159Y-105000000D01*
%TO.N,Net-(D14-DOUT)*%
X111147158Y-97599999D02*
X112647158Y-96099999D01*
X112647158Y-96099999D02*
X112647158Y-87099999D01*
X111147158Y-98399999D02*
X111147158Y-97599999D01*
%TO.N,COL1*%
X154600000Y-76526598D02*
X154600000Y-70400000D01*
X154000000Y-60000000D02*
X154000000Y-54000000D01*
X160000000Y-66000000D02*
X154000000Y-60000000D01*
X152925735Y-52925735D02*
X152925735Y-44755735D01*
X147000000Y-39000000D02*
X147000000Y-38000000D01*
X152925735Y-44755735D02*
X149000000Y-40830000D01*
X147000000Y-38000000D02*
X145540000Y-36540000D01*
X154600000Y-70400000D02*
X155000000Y-70000000D01*
X145540000Y-36540000D02*
X144750000Y-36540000D01*
X150000000Y-81126598D02*
X154600000Y-76526598D01*
X150000000Y-86000000D02*
X150000000Y-81126598D01*
%TO.N,Net-(D5-A)*%
X177830000Y-78450000D02*
X164740000Y-78450000D01*
X182000000Y-82620000D02*
X177830000Y-78450000D01*
%TO.N,Net-(D18-DOUT)*%
X129000000Y-52000000D02*
X123000000Y-46000000D01*
X122000000Y-39000000D02*
X122000000Y-36347158D01*
X123000000Y-46000000D02*
X123000000Y-41000000D01*
X122000000Y-36347158D02*
X119800000Y-34147158D01*
X119800000Y-34147158D02*
X119000000Y-34147158D01*
X191352842Y-65400001D02*
X189400001Y-65400001D01*
X189400001Y-65400001D02*
X189000000Y-65000000D01*
%TO.N,Net-(D13-DOUT)*%
X111147158Y-63399999D02*
X111147158Y-62599999D01*
X111147158Y-62599999D02*
X112647158Y-61099999D01*
X112647158Y-61099999D02*
X112647158Y-52599999D01*
%TO.N,Net-(D13-DIN)*%
X164817159Y-40230000D02*
X120770000Y-40230000D01*
X169400001Y-35647158D02*
X164817159Y-40230000D01*
X120770000Y-40230000D02*
X115000000Y-46000000D01*
X111147158Y-47399999D02*
X111147158Y-46852842D01*
X111147158Y-46852842D02*
X112000000Y-46000000D01*
X112000000Y-46000000D02*
X113000000Y-46000000D01*
%TO.N,Net-(D19-DOUT)*%
X191000000Y-34147158D02*
X192852842Y-34147158D01*
X192852842Y-34147158D02*
X193000000Y-34000000D01*
X113800000Y-35647158D02*
X113800000Y-36800000D01*
X113800000Y-36800000D02*
X117000000Y-40000000D01*
%TO.N,COL2*%
X169000000Y-89000000D02*
X169090000Y-89000000D01*
X147000000Y-42000000D02*
X150000000Y-45000000D01*
X159000000Y-78910000D02*
X159000000Y-79000000D01*
X169090000Y-89000000D02*
X171090000Y-91000000D01*
X150000000Y-55000000D02*
X148000000Y-57000000D01*
X153000000Y-64000000D02*
X156000000Y-67000000D01*
X156000000Y-75910000D02*
X159000000Y-78910000D01*
X150000000Y-45000000D02*
X150000000Y-55000000D01*
X156000000Y-67000000D02*
X156000000Y-75910000D01*
%TO.N,Net-(D6-A)*%
X180460000Y-93540000D02*
X164740000Y-93540000D01*
X182000000Y-92000000D02*
X180460000Y-93540000D01*
%TO.N,Net-(D11-DOUT)*%
X186000000Y-110147158D02*
X187000000Y-109147158D01*
X139000000Y-113000000D02*
X139400001Y-112599999D01*
X187000000Y-108000000D02*
X184000000Y-108000000D01*
X139400001Y-112599999D02*
X139400001Y-111647158D01*
X187000000Y-109147158D02*
X187000000Y-108000000D01*
X135000000Y-113000000D02*
X139000000Y-113000000D01*
%TO.N,Net-(D10-DOUT)*%
X146000000Y-114000000D02*
X147000000Y-113000000D01*
X145747159Y-109000000D02*
X144600001Y-110147158D01*
X121000000Y-114000000D02*
X146000000Y-114000000D01*
X147000000Y-109000000D02*
X145747159Y-109000000D01*
X119400001Y-112400001D02*
X121000000Y-114000000D01*
X119400001Y-111647158D02*
X119400001Y-112400001D01*
%TO.N,Net-(D15-DOUT)*%
X197000000Y-111000000D02*
X194000000Y-108000000D01*
X194000000Y-108000000D02*
X194000000Y-103600001D01*
X180800000Y-111647158D02*
X180800000Y-112800000D01*
X180800000Y-112800000D02*
X183000000Y-115000000D01*
X183000000Y-115000000D02*
X193000000Y-115000000D01*
X193000000Y-115000000D02*
X197000000Y-111000000D01*
%TO.N,Net-(D12-DOUT)*%
X161000000Y-64000000D02*
X170000000Y-55000000D01*
X160400001Y-111647158D02*
X159600001Y-111647158D01*
X177000000Y-35747157D02*
X177000000Y-39000000D01*
X161000000Y-108000000D02*
X161000000Y-64000000D01*
X175400001Y-34147158D02*
X177000000Y-35747157D01*
X159000000Y-108000000D02*
X161000000Y-108000000D01*
X159600001Y-111647158D02*
X158000000Y-110047157D01*
X176600000Y-39400000D02*
X174000000Y-39400000D01*
X158000000Y-110047157D02*
X158000000Y-109000000D01*
X177000000Y-39000000D02*
X176600000Y-39400000D01*
X158000000Y-109000000D02*
X159000000Y-108000000D01*
X174600001Y-34147158D02*
X175400001Y-34147158D01*
%TO.N,WS2812B*%
X158900000Y-44636346D02*
X158900000Y-42720000D01*
X159573654Y-47850000D02*
X162426346Y-47850000D01*
X162270000Y-96577056D02*
X162270000Y-65730000D01*
X163100000Y-46223654D02*
X162426346Y-45550000D01*
X158900000Y-48523654D02*
X159573654Y-47850000D01*
X158900000Y-53400000D02*
X158900000Y-48523654D01*
X162426346Y-47850000D02*
X163100000Y-47176346D01*
X158900000Y-42720000D02*
X160000000Y-41620000D01*
X159813654Y-45550000D02*
X158900000Y-44636346D01*
X162426346Y-45550000D02*
X159813654Y-45550000D01*
X162000000Y-56500000D02*
X158900000Y-53400000D01*
X165600001Y-110147158D02*
X165600001Y-99907057D01*
X162270000Y-65730000D02*
X164000000Y-64000000D01*
X163100000Y-47176346D02*
X163100000Y-46223654D01*
X165600001Y-99907057D02*
X162270000Y-96577056D01*
%TO.N,ROW0*%
X144380000Y-62320000D02*
X160000000Y-46700000D01*
X144380000Y-69000000D02*
X144380000Y-62320000D01*
%TO.N,ROW1*%
X182000000Y-75000000D02*
X183100000Y-76100000D01*
X151405000Y-105605000D02*
X159395000Y-105605000D01*
X183100000Y-98520000D02*
X182000000Y-99620000D01*
X171000000Y-58000000D02*
X170000000Y-57000000D01*
X183100000Y-76100000D02*
X183100000Y-98520000D01*
X182000000Y-101000000D02*
X182000000Y-99620000D01*
X159395000Y-105605000D02*
X160000000Y-105000000D01*
X167651473Y-55651473D02*
X166000000Y-54000000D01*
X167651473Y-56500000D02*
X167651473Y-55651473D01*
X182000000Y-75000000D02*
X171000000Y-64000000D01*
X181000000Y-102000000D02*
X182000000Y-101000000D01*
X171000000Y-64000000D02*
X171000000Y-58000000D01*
%TO.N,Net-(D14-DIN)*%
X111147158Y-81899999D02*
X111147158Y-81099999D01*
X112647158Y-79599999D02*
X112647158Y-68599999D01*
X111147158Y-81099999D02*
X112647158Y-79599999D01*
%TD*%
M02*
