M48
; DRILL file KiCad 10.0.5 date 2026-09-26T23:26:01
; FORMAT={-:-/ absolute / metric / decimal}
; #@! TF.CreationDate,2026-09-26T23:26:01+05:30
; #@! TF.GenerationSoftware,Kicad,Pcbnew,10.0.5
; #@! TF.FileFunction,Plated,1,2,PTH
FMAT,2
METRIC
; #@! TA.AperFunction,Plated,PTH,ViaDrill
T1C0.300
; #@! TA.AperFunction,Plated,PTH,ComponentDrill
T2C0.800
; #@! TA.AperFunction,Plated,PTH,ComponentDrill
T3C1.000
; #@! TA.AperFunction,Plated,PTH,ComponentDrill
T4C1.500
%
G90
G05
T1
X111.147Y-52.6
X112.0Y-70.0
X113.0Y-46.0
X115.0Y-46.0
X116.85Y-50.85
X117.0Y-40.0
X121.0Y-37.0
X121.0Y-108.0
X122.0Y-39.0
X123.0Y-41.0
X125.0Y-107.0
X128.0Y-39.0
X128.0Y-42.0
X129.0Y-52.0
X130.0Y-37.197
X131.0Y-49.0
X134.267Y-35.121
X135.0Y-113.0
X140.0Y-39.0
X140.0Y-42.0
X141.0Y-108.4
X147.0Y-39.0
X147.0Y-42.0
X147.0Y-109.0
X147.0Y-113.0
X148.0Y-57.0
X149.0Y-40.83
X150.0Y-86.0
X152.926Y-52.926
X153.0Y-64.0
X154.0Y-54.0
X155.0Y-70.0
X158.641Y-109.207
X159.0Y-79.0
X160.0Y-66.0
X160.0Y-105.0
X160.4Y-109.4
X162.0Y-56.5
X163.044Y-50.032
X164.0Y-64.0
X166.0Y-54.0
X166.0Y-113.0
X167.0Y-109.0
X167.651Y-56.5
X169.0Y-89.0
X169.271Y-37.33
X170.0Y-37.0
X170.0Y-39.0
X170.0Y-55.0
X170.0Y-57.0
X174.0Y-39.4
X176.0Y-38.53
X176.0Y-41.0
X181.0Y-102.0
X184.0Y-108.0
X185.0Y-114.4
X189.0Y-65.0
X190.0Y-103.0
X190.95Y-101.0
X191.0Y-93.0
X193.0Y-34.0
X193.0Y-55.0
X194.0Y-96.0
T2
X124.0Y-73.38
X124.0Y-81.0
X124.0Y-90.19
X124.0Y-97.81
X136.76Y-69.0
X143.785Y-105.605
X144.38Y-69.0
X151.405Y-105.605
X182.0Y-75.0
X182.0Y-82.62
X182.0Y-92.0
X182.0Y-99.62
T3
X118.0Y-56.92
X118.0Y-59.46
X118.0Y-62.0
X118.0Y-64.54
X144.75Y-34.0
X144.75Y-36.54
X144.75Y-39.08
X144.75Y-41.62
X144.75Y-44.16
X144.75Y-46.7
X144.75Y-49.24
X160.0Y-34.0
X160.0Y-36.54
X160.0Y-39.08
X160.0Y-41.62
X160.0Y-44.16
X160.0Y-46.7
X160.0Y-49.24
X170.75Y-46.5
X170.75Y-49.0
X170.75Y-51.5
X185.25Y-46.5
X185.25Y-51.5
T4
X134.56Y-78.45
X134.56Y-93.54
X140.91Y-75.91
X140.91Y-91.0
X149.65Y-78.45
X149.65Y-93.54
X156.0Y-75.91
X156.0Y-91.0
X164.74Y-78.45
X164.74Y-93.54
X171.09Y-75.91
X171.09Y-91.0
T4
G00X177.6Y-43.4
M15
G01X178.9Y-43.4
M16
G05
G00X177.6Y-54.6
M15
G01X178.9Y-54.6
M16
G05
M30
