M48
; DRILL file KiCad 10.0.5 date 2026-09-26T23:26:01
; FORMAT={-:-/ absolute / metric / decimal}
; #@! TF.CreationDate,2026-09-26T23:26:01+05:30
; #@! TF.GenerationSoftware,Kicad,Pcbnew,10.0.5
; #@! TF.FileFunction,NonPlated,1,2,NPTH
FMAT,2
METRIC
; #@! TA.AperFunction,NonPlated,NPTH,ComponentDrill
T1C1.700
; #@! TA.AperFunction,NonPlated,NPTH,ComponentDrill
T2C3.200
; #@! TA.AperFunction,NonPlated,NPTH,ComponentDrill
T3C4.000
%
G90
G05
T1
X133.29Y-80.99
X133.29Y-96.08
X143.45Y-80.99
X143.45Y-96.08
X148.38Y-80.99
X148.38Y-96.08
X158.54Y-80.99
X158.54Y-96.08
X163.47Y-80.99
X163.47Y-96.08
X173.63Y-80.99
X173.63Y-96.08
T2
X113.0Y-42.0
X113.0Y-110.0
X193.0Y-42.0
X193.0Y-110.0
T3
X138.37Y-80.99
X138.37Y-96.08
X153.46Y-80.99
X153.46Y-96.08
X168.55Y-80.99
X168.55Y-96.08
M30
