%TF.GenerationSoftware,KiCad,Pcbnew,10.0.5*%
%TF.CreationDate,2026-09-26T23:26:05+05:30*%
%TF.ProjectId,PCB,5043422e-6b69-4636-9164-5f7063625858,rev?*%
%TF.SameCoordinates,Original*%
%TF.FileFunction,Soldermask,Bot*%
%TF.FilePolarity,Negative*%
%FSLAX46Y46*%
G04 Gerber Fmt 4.6, Leading zero omitted, Abs format (unit mm)*
G04 Created by KiCad (PCBNEW 10.0.5) date 2026-09-26 23:26:05*
%MOMM*%
%LPD*%
G01*
G04 APERTURE LIST*
G04 Aperture macros list*
%AMRoundRect*
0 Rectangle with rounded corners*
0 $1 Rounding radius*
0 $2 $3 $4 $5 $6 $7 $8 $9 X,Y pos of 4 corners*
0 Add a 4 corners polygon primitive as box body*
4,1,4,$2,$3,$4,$5,$6,$7,$8,$9,$2,$3,0*
0 Add four circle primitives for the rounded corners*
1,1,$1+$1,$2,$3*
1,1,$1+$1,$4,$5*
1,1,$1+$1,$6,$7*
1,1,$1+$1,$8,$9*
0 Add four rect primitives between the rounded corners*
20,1,$1+$1,$2,$3,$4,$5,0*
20,1,$1+$1,$4,$5,$6,$7,0*
20,1,$1+$1,$6,$7,$8,$9,0*
20,1,$1+$1,$8,$9,$2,$3,0*%
G04 Aperture macros list end*
%ADD10R,2.000000X2.000000*%
%ADD11C,2.000000*%
%ADD12R,3.200000X2.000000*%
%ADD13C,1.700000*%
%ADD14C,4.000000*%
%ADD15C,2.200000*%
%ADD16RoundRect,0.082000X0.328000X0.718000X-0.328000X0.718000X-0.328000X-0.718000X0.328000X-0.718000X0*%
%ADD17RoundRect,0.082000X-0.718000X0.328000X-0.718000X-0.328000X0.718000X-0.328000X0.718000X0.328000X0*%
%ADD18RoundRect,0.082000X-0.328000X-0.718000X0.328000X-0.718000X0.328000X0.718000X-0.328000X0.718000X0*%
%ADD19C,3.200000*%
%ADD20R,3.500000X1.700000*%
%ADD21O,3.600000X1.700000*%
%ADD22O,3.700000X1.700000*%
%ADD23R,1.700000X1.700000*%
%ADD24RoundRect,0.250000X0.550000X-0.550000X0.550000X0.550000X-0.550000X0.550000X-0.550000X-0.550000X0*%
%ADD25C,1.600000*%
%ADD26RoundRect,0.250000X-0.550000X0.550000X-0.550000X-0.550000X0.550000X-0.550000X0.550000X0.550000X0*%
%ADD27RoundRect,0.250000X0.550000X0.550000X-0.550000X0.550000X-0.550000X-0.550000X0.550000X-0.550000X0*%
G04 APERTURE END LIST*
D10*
%TO.C,SW7*%
X170750000Y-46500000D03*
D11*
X170750000Y-51500000D03*
X170750000Y-49000000D03*
D12*
X178250000Y-43400000D03*
X178250000Y-54600000D03*
D11*
X185250000Y-51500000D03*
X185250000Y-46500000D03*
%TD*%
D13*
%TO.C,SW1*%
X133290000Y-80990000D03*
D14*
X138370000Y-80990000D03*
D13*
X143450000Y-80990000D03*
D15*
X140910000Y-75910000D03*
X134560000Y-78450000D03*
%TD*%
D16*
%TO.C,D17*%
X193252841Y-81900001D03*
X191752841Y-81900001D03*
X191752841Y-87100001D03*
X193252841Y-87100001D03*
%TD*%
D17*
%TO.C,D21*%
X127800000Y-34147158D03*
X127800000Y-35647158D03*
X133000000Y-35647158D03*
X133000000Y-34147158D03*
%TD*%
D18*
%TO.C,D9*%
X111147158Y-103599999D03*
X112647158Y-103599999D03*
X112647158Y-98399999D03*
X111147158Y-98399999D03*
%TD*%
D13*
%TO.C,SW5*%
X163470000Y-80990000D03*
D14*
X168550000Y-80990000D03*
D13*
X173630000Y-80990000D03*
D15*
X171090000Y-75910000D03*
X164740000Y-78450000D03*
%TD*%
D16*
%TO.C,D18*%
X192852842Y-65400001D03*
X191352842Y-65400001D03*
X191352842Y-70600001D03*
X192852842Y-70600001D03*
%TD*%
D18*
%TO.C,D13*%
X111147158Y-52599999D03*
X112647158Y-52599999D03*
X112647158Y-47399999D03*
X111147158Y-47399999D03*
%TD*%
D17*
%TO.C,D19*%
X113800000Y-34147158D03*
X113800000Y-35647158D03*
X119000000Y-35647158D03*
X119000000Y-34147158D03*
%TD*%
D19*
%TO.C,REF\u002A\u002A*%
X193000000Y-42000000D03*
%TD*%
D13*
%TO.C,SW6*%
X163470000Y-96080000D03*
D14*
X168550000Y-96080000D03*
D13*
X173630000Y-96080000D03*
D15*
X171090000Y-91000000D03*
X164740000Y-93540000D03*
%TD*%
D13*
%TO.C,SW4*%
X148380000Y-96080000D03*
D14*
X153460000Y-96080000D03*
D13*
X158540000Y-96080000D03*
D15*
X156000000Y-91000000D03*
X149650000Y-93540000D03*
%TD*%
D16*
%TO.C,D22*%
X193252841Y-47400001D03*
X191752841Y-47400001D03*
X191752841Y-52600001D03*
X193252841Y-52600001D03*
%TD*%
D13*
%TO.C,SW3*%
X148380000Y-80990000D03*
D14*
X153460000Y-80990000D03*
D13*
X158540000Y-80990000D03*
D15*
X156000000Y-75910000D03*
X149650000Y-78450000D03*
%TD*%
D19*
%TO.C,REF\u002A\u002A*%
X113000000Y-110000000D03*
%TD*%
D17*
%TO.C,D11*%
X139400001Y-110147158D03*
X139400001Y-111647158D03*
X144600001Y-111647158D03*
X144600001Y-110147158D03*
%TD*%
%TO.C,D15*%
X180800000Y-110147158D03*
X180800000Y-111647158D03*
X186000000Y-111647158D03*
X186000000Y-110147158D03*
%TD*%
%TO.C,D12*%
X160400001Y-110147158D03*
X160400001Y-111647158D03*
X165600001Y-111647158D03*
X165600001Y-110147158D03*
%TD*%
D19*
%TO.C,REF\u002A\u002A*%
X193000000Y-110000000D03*
%TD*%
D17*
%TO.C,D20*%
X185800000Y-34147158D03*
X185800000Y-35647158D03*
X191000000Y-35647158D03*
X191000000Y-34147158D03*
%TD*%
D20*
%TO.C,U1*%
X143750000Y-34000000D03*
D21*
X143750000Y-36540000D03*
X143750000Y-39080000D03*
X143750000Y-41620000D03*
X143750000Y-44160000D03*
X143750000Y-46700000D03*
X143750000Y-49240000D03*
X161000000Y-49240000D03*
X161000000Y-46700000D03*
X161000000Y-44160000D03*
D22*
X161000000Y-41620000D03*
X161000000Y-39080000D03*
X161000000Y-36540000D03*
X161000000Y-34000000D03*
%TD*%
D19*
%TO.C,REF\u002A\u002A*%
X113000000Y-42000000D03*
%TD*%
D18*
%TO.C,D14*%
X111147158Y-87099999D03*
X112647158Y-87099999D03*
X112647158Y-81899999D03*
X111147158Y-81899999D03*
%TD*%
D16*
%TO.C,D16*%
X194000000Y-98400001D03*
X192500000Y-98400001D03*
X192500000Y-103600001D03*
X194000000Y-103600001D03*
%TD*%
D23*
%TO.C,J1*%
X118000000Y-56920000D03*
D13*
X118000000Y-59460000D03*
X118000000Y-62000000D03*
X118000000Y-64540000D03*
%TD*%
D17*
%TO.C,D7*%
X169400001Y-34147158D03*
X169400001Y-35647158D03*
X174600001Y-35647158D03*
X174600001Y-34147158D03*
%TD*%
D13*
%TO.C,SW2*%
X133290000Y-96080000D03*
D14*
X138370000Y-96080000D03*
D13*
X143450000Y-96080000D03*
D15*
X140910000Y-91000000D03*
X134560000Y-93540000D03*
%TD*%
D17*
%TO.C,D10*%
X119400001Y-110147158D03*
X119400001Y-111647158D03*
X124600001Y-111647158D03*
X124600001Y-110147158D03*
%TD*%
D18*
%TO.C,D8*%
X111147158Y-68599999D03*
X112647158Y-68599999D03*
X112647158Y-63399999D03*
X111147158Y-63399999D03*
%TD*%
D24*
%TO.C,D6*%
X182000000Y-99620000D03*
D25*
X182000000Y-92000000D03*
%TD*%
D26*
%TO.C,D5*%
X182000000Y-75000000D03*
D25*
X182000000Y-82620000D03*
%TD*%
D27*
%TO.C,D4*%
X151405000Y-105605000D03*
D25*
X143785000Y-105605000D03*
%TD*%
D27*
%TO.C,D3*%
X144380000Y-69000000D03*
D25*
X136760000Y-69000000D03*
%TD*%
D24*
%TO.C,D2*%
X124000000Y-97810000D03*
D25*
X124000000Y-90190000D03*
%TD*%
D24*
%TO.C,D1*%
X124000000Y-81000000D03*
D25*
X124000000Y-73380000D03*
%TD*%
M02*
