%TF.GenerationSoftware,KiCad,Pcbnew,10.0.5*%
%TF.CreationDate,2026-09-26T23:26:05+05:30*%
%TF.ProjectId,PCB,5043422e-6b69-4636-9164-5f7063625858,rev?*%
%TF.SameCoordinates,Original*%
%TF.FileFunction,Legend,Bot*%
%TF.FilePolarity,Positive*%
%FSLAX46Y46*%
G04 Gerber Fmt 4.6, Leading zero omitted, Abs format (unit mm)*
G04 Created by KiCad (PCBNEW 10.0.5) date 2026-09-26 23:26:05*
%MOMM*%
%LPD*%
G01*
G04 APERTURE LIST*
%ADD10C,0.150000*%
%ADD11C,0.100000*%
%ADD12C,0.120000*%
G04 APERTURE END LIST*
D10*
X184574819Y-95071905D02*
X183574819Y-95071905D01*
X183574819Y-95071905D02*
X183574819Y-95310000D01*
X183574819Y-95310000D02*
X183622438Y-95452857D01*
X183622438Y-95452857D02*
X183717676Y-95548095D01*
X183717676Y-95548095D02*
X183812914Y-95595714D01*
X183812914Y-95595714D02*
X184003390Y-95643333D01*
X184003390Y-95643333D02*
X184146247Y-95643333D01*
X184146247Y-95643333D02*
X184336723Y-95595714D01*
X184336723Y-95595714D02*
X184431961Y-95548095D01*
X184431961Y-95548095D02*
X184527200Y-95452857D01*
X184527200Y-95452857D02*
X184574819Y-95310000D01*
X184574819Y-95310000D02*
X184574819Y-95071905D01*
X183574819Y-96500476D02*
X183574819Y-96310000D01*
X183574819Y-96310000D02*
X183622438Y-96214762D01*
X183622438Y-96214762D02*
X183670057Y-96167143D01*
X183670057Y-96167143D02*
X183812914Y-96071905D01*
X183812914Y-96071905D02*
X184003390Y-96024286D01*
X184003390Y-96024286D02*
X184384342Y-96024286D01*
X184384342Y-96024286D02*
X184479580Y-96071905D01*
X184479580Y-96071905D02*
X184527200Y-96119524D01*
X184527200Y-96119524D02*
X184574819Y-96214762D01*
X184574819Y-96214762D02*
X184574819Y-96405238D01*
X184574819Y-96405238D02*
X184527200Y-96500476D01*
X184527200Y-96500476D02*
X184479580Y-96548095D01*
X184479580Y-96548095D02*
X184384342Y-96595714D01*
X184384342Y-96595714D02*
X184146247Y-96595714D01*
X184146247Y-96595714D02*
X184051009Y-96548095D01*
X184051009Y-96548095D02*
X184003390Y-96500476D01*
X184003390Y-96500476D02*
X183955771Y-96405238D01*
X183955771Y-96405238D02*
X183955771Y-96214762D01*
X183955771Y-96214762D02*
X184003390Y-96119524D01*
X184003390Y-96119524D02*
X184051009Y-96071905D01*
X184051009Y-96071905D02*
X184146247Y-96024286D01*
X184254819Y-99358095D02*
X183254819Y-99358095D01*
X184254819Y-99929523D02*
X183683390Y-99500952D01*
X183254819Y-99929523D02*
X183826247Y-99358095D01*
X180334819Y-78071905D02*
X179334819Y-78071905D01*
X179334819Y-78071905D02*
X179334819Y-78310000D01*
X179334819Y-78310000D02*
X179382438Y-78452857D01*
X179382438Y-78452857D02*
X179477676Y-78548095D01*
X179477676Y-78548095D02*
X179572914Y-78595714D01*
X179572914Y-78595714D02*
X179763390Y-78643333D01*
X179763390Y-78643333D02*
X179906247Y-78643333D01*
X179906247Y-78643333D02*
X180096723Y-78595714D01*
X180096723Y-78595714D02*
X180191961Y-78548095D01*
X180191961Y-78548095D02*
X180287200Y-78452857D01*
X180287200Y-78452857D02*
X180334819Y-78310000D01*
X180334819Y-78310000D02*
X180334819Y-78071905D01*
X179334819Y-79548095D02*
X179334819Y-79071905D01*
X179334819Y-79071905D02*
X179811009Y-79024286D01*
X179811009Y-79024286D02*
X179763390Y-79071905D01*
X179763390Y-79071905D02*
X179715771Y-79167143D01*
X179715771Y-79167143D02*
X179715771Y-79405238D01*
X179715771Y-79405238D02*
X179763390Y-79500476D01*
X179763390Y-79500476D02*
X179811009Y-79548095D01*
X179811009Y-79548095D02*
X179906247Y-79595714D01*
X179906247Y-79595714D02*
X180144342Y-79595714D01*
X180144342Y-79595714D02*
X180239580Y-79548095D01*
X180239580Y-79548095D02*
X180287200Y-79500476D01*
X180287200Y-79500476D02*
X180334819Y-79405238D01*
X180334819Y-79405238D02*
X180334819Y-79167143D01*
X180334819Y-79167143D02*
X180287200Y-79071905D01*
X180287200Y-79071905D02*
X180239580Y-79024286D01*
X180654819Y-74738095D02*
X179654819Y-74738095D01*
X180654819Y-75309523D02*
X180083390Y-74880952D01*
X179654819Y-75309523D02*
X180226247Y-74738095D01*
X148333094Y-103939819D02*
X148333094Y-102939819D01*
X148333094Y-102939819D02*
X148094999Y-102939819D01*
X148094999Y-102939819D02*
X147952142Y-102987438D01*
X147952142Y-102987438D02*
X147856904Y-103082676D01*
X147856904Y-103082676D02*
X147809285Y-103177914D01*
X147809285Y-103177914D02*
X147761666Y-103368390D01*
X147761666Y-103368390D02*
X147761666Y-103511247D01*
X147761666Y-103511247D02*
X147809285Y-103701723D01*
X147809285Y-103701723D02*
X147856904Y-103796961D01*
X147856904Y-103796961D02*
X147952142Y-103892200D01*
X147952142Y-103892200D02*
X148094999Y-103939819D01*
X148094999Y-103939819D02*
X148333094Y-103939819D01*
X146904523Y-103273152D02*
X146904523Y-103939819D01*
X147142618Y-102892200D02*
X147380713Y-103606485D01*
X147380713Y-103606485D02*
X146761666Y-103606485D01*
X151666904Y-104259819D02*
X151666904Y-103259819D01*
X151095476Y-104259819D02*
X151524047Y-103688390D01*
X151095476Y-103259819D02*
X151666904Y-103831247D01*
X141308094Y-67334819D02*
X141308094Y-66334819D01*
X141308094Y-66334819D02*
X141069999Y-66334819D01*
X141069999Y-66334819D02*
X140927142Y-66382438D01*
X140927142Y-66382438D02*
X140831904Y-66477676D01*
X140831904Y-66477676D02*
X140784285Y-66572914D01*
X140784285Y-66572914D02*
X140736666Y-66763390D01*
X140736666Y-66763390D02*
X140736666Y-66906247D01*
X140736666Y-66906247D02*
X140784285Y-67096723D01*
X140784285Y-67096723D02*
X140831904Y-67191961D01*
X140831904Y-67191961D02*
X140927142Y-67287200D01*
X140927142Y-67287200D02*
X141069999Y-67334819D01*
X141069999Y-67334819D02*
X141308094Y-67334819D01*
X140403332Y-66334819D02*
X139784285Y-66334819D01*
X139784285Y-66334819D02*
X140117618Y-66715771D01*
X140117618Y-66715771D02*
X139974761Y-66715771D01*
X139974761Y-66715771D02*
X139879523Y-66763390D01*
X139879523Y-66763390D02*
X139831904Y-66811009D01*
X139831904Y-66811009D02*
X139784285Y-66906247D01*
X139784285Y-66906247D02*
X139784285Y-67144342D01*
X139784285Y-67144342D02*
X139831904Y-67239580D01*
X139831904Y-67239580D02*
X139879523Y-67287200D01*
X139879523Y-67287200D02*
X139974761Y-67334819D01*
X139974761Y-67334819D02*
X140260475Y-67334819D01*
X140260475Y-67334819D02*
X140355713Y-67287200D01*
X140355713Y-67287200D02*
X140403332Y-67239580D01*
X144641904Y-67654819D02*
X144641904Y-66654819D01*
X144070476Y-67654819D02*
X144499047Y-67083390D01*
X144070476Y-66654819D02*
X144641904Y-67226247D01*
X126574819Y-93261905D02*
X125574819Y-93261905D01*
X125574819Y-93261905D02*
X125574819Y-93500000D01*
X125574819Y-93500000D02*
X125622438Y-93642857D01*
X125622438Y-93642857D02*
X125717676Y-93738095D01*
X125717676Y-93738095D02*
X125812914Y-93785714D01*
X125812914Y-93785714D02*
X126003390Y-93833333D01*
X126003390Y-93833333D02*
X126146247Y-93833333D01*
X126146247Y-93833333D02*
X126336723Y-93785714D01*
X126336723Y-93785714D02*
X126431961Y-93738095D01*
X126431961Y-93738095D02*
X126527200Y-93642857D01*
X126527200Y-93642857D02*
X126574819Y-93500000D01*
X126574819Y-93500000D02*
X126574819Y-93261905D01*
X125670057Y-94214286D02*
X125622438Y-94261905D01*
X125622438Y-94261905D02*
X125574819Y-94357143D01*
X125574819Y-94357143D02*
X125574819Y-94595238D01*
X125574819Y-94595238D02*
X125622438Y-94690476D01*
X125622438Y-94690476D02*
X125670057Y-94738095D01*
X125670057Y-94738095D02*
X125765295Y-94785714D01*
X125765295Y-94785714D02*
X125860533Y-94785714D01*
X125860533Y-94785714D02*
X126003390Y-94738095D01*
X126003390Y-94738095D02*
X126574819Y-94166667D01*
X126574819Y-94166667D02*
X126574819Y-94785714D01*
X126254819Y-97548095D02*
X125254819Y-97548095D01*
X126254819Y-98119523D02*
X125683390Y-97690952D01*
X125254819Y-98119523D02*
X125826247Y-97548095D01*
X126574819Y-76451905D02*
X125574819Y-76451905D01*
X125574819Y-76451905D02*
X125574819Y-76690000D01*
X125574819Y-76690000D02*
X125622438Y-76832857D01*
X125622438Y-76832857D02*
X125717676Y-76928095D01*
X125717676Y-76928095D02*
X125812914Y-76975714D01*
X125812914Y-76975714D02*
X126003390Y-77023333D01*
X126003390Y-77023333D02*
X126146247Y-77023333D01*
X126146247Y-77023333D02*
X126336723Y-76975714D01*
X126336723Y-76975714D02*
X126431961Y-76928095D01*
X126431961Y-76928095D02*
X126527200Y-76832857D01*
X126527200Y-76832857D02*
X126574819Y-76690000D01*
X126574819Y-76690000D02*
X126574819Y-76451905D01*
X126574819Y-77975714D02*
X126574819Y-77404286D01*
X126574819Y-77690000D02*
X125574819Y-77690000D01*
X125574819Y-77690000D02*
X125717676Y-77594762D01*
X125717676Y-77594762D02*
X125812914Y-77499524D01*
X125812914Y-77499524D02*
X125860533Y-77404286D01*
X126254819Y-80738095D02*
X125254819Y-80738095D01*
X126254819Y-81309523D02*
X125683390Y-80880952D01*
X125254819Y-81309523D02*
X125826247Y-80738095D01*
D11*
%TO.C,D17*%
X191502841Y-88700001D02*
X190602841Y-87800001D01*
X190602841Y-88700001D01*
X191502841Y-88700001D01*
G36*
X191502841Y-88700001D02*
G01*
X190602841Y-88700001D01*
X190602841Y-87800001D01*
X191502841Y-88700001D01*
G37*
%TO.C,D21*%
X134600000Y-35897158D02*
X133700000Y-36797158D01*
X134600000Y-36797158D01*
X134600000Y-35897158D01*
G36*
X134600000Y-36797158D02*
G01*
X133700000Y-36797158D01*
X134600000Y-35897158D01*
X134600000Y-36797158D01*
G37*
%TO.C,D9*%
X112897158Y-96799999D02*
X113797158Y-97699999D01*
X113797158Y-96799999D01*
X112897158Y-96799999D01*
G36*
X113797158Y-97699999D02*
G01*
X112897158Y-96799999D01*
X113797158Y-96799999D01*
X113797158Y-97699999D01*
G37*
%TO.C,D18*%
X191102842Y-72200001D02*
X190202842Y-71300001D01*
X190202842Y-72200001D01*
X191102842Y-72200001D01*
G36*
X191102842Y-72200001D02*
G01*
X190202842Y-72200001D01*
X190202842Y-71300001D01*
X191102842Y-72200001D01*
G37*
%TO.C,D13*%
X112897158Y-45799999D02*
X113797158Y-46699999D01*
X113797158Y-45799999D01*
X112897158Y-45799999D01*
G36*
X113797158Y-46699999D02*
G01*
X112897158Y-45799999D01*
X113797158Y-45799999D01*
X113797158Y-46699999D01*
G37*
%TO.C,D19*%
X120600000Y-35897158D02*
X119700000Y-36797158D01*
X120600000Y-36797158D01*
X120600000Y-35897158D01*
G36*
X120600000Y-36797158D02*
G01*
X119700000Y-36797158D01*
X120600000Y-35897158D01*
X120600000Y-36797158D01*
G37*
%TO.C,D22*%
X191502841Y-54200001D02*
X190602841Y-53300001D01*
X190602841Y-54200001D01*
X191502841Y-54200001D01*
G36*
X191502841Y-54200001D02*
G01*
X190602841Y-54200001D01*
X190602841Y-53300001D01*
X191502841Y-54200001D01*
G37*
%TO.C,D11*%
X146200001Y-111897158D02*
X145300001Y-112797158D01*
X146200001Y-112797158D01*
X146200001Y-111897158D01*
G36*
X146200001Y-112797158D02*
G01*
X145300001Y-112797158D01*
X146200001Y-111897158D01*
X146200001Y-112797158D01*
G37*
%TO.C,D15*%
X187600000Y-111897158D02*
X186700000Y-112797158D01*
X187600000Y-112797158D01*
X187600000Y-111897158D01*
G36*
X187600000Y-112797158D02*
G01*
X186700000Y-112797158D01*
X187600000Y-111897158D01*
X187600000Y-112797158D01*
G37*
%TO.C,D12*%
X167200001Y-111897158D02*
X166300001Y-112797158D01*
X167200001Y-112797158D01*
X167200001Y-111897158D01*
G36*
X167200001Y-112797158D02*
G01*
X166300001Y-112797158D01*
X167200001Y-111897158D01*
X167200001Y-112797158D01*
G37*
%TO.C,D20*%
X192600000Y-35897158D02*
X191700000Y-36797158D01*
X192600000Y-36797158D01*
X192600000Y-35897158D01*
G36*
X192600000Y-36797158D02*
G01*
X191700000Y-36797158D01*
X192600000Y-35897158D01*
X192600000Y-36797158D01*
G37*
%TO.C,D14*%
X112897158Y-80299999D02*
X113797158Y-81199999D01*
X113797158Y-80299999D01*
X112897158Y-80299999D01*
G36*
X113797158Y-81199999D02*
G01*
X112897158Y-80299999D01*
X113797158Y-80299999D01*
X113797158Y-81199999D01*
G37*
%TO.C,D16*%
X192250000Y-105200001D02*
X191350000Y-104300001D01*
X191350000Y-105200001D01*
X192250000Y-105200001D01*
G36*
X192250000Y-105200001D02*
G01*
X191350000Y-105200001D01*
X191350000Y-104300001D01*
X192250000Y-105200001D01*
G37*
%TO.C,D7*%
X176200001Y-35897158D02*
X175300001Y-36797158D01*
X176200001Y-36797158D01*
X176200001Y-35897158D01*
G36*
X176200001Y-36797158D02*
G01*
X175300001Y-36797158D01*
X176200001Y-35897158D01*
X176200001Y-36797158D01*
G37*
%TO.C,D10*%
X126200001Y-111897158D02*
X125300001Y-112797158D01*
X126200001Y-112797158D01*
X126200001Y-111897158D01*
G36*
X126200001Y-112797158D02*
G01*
X125300001Y-112797158D01*
X126200001Y-111897158D01*
X126200001Y-112797158D01*
G37*
%TO.C,D8*%
X112897158Y-61799999D02*
X113797158Y-62699999D01*
X113797158Y-61799999D01*
X112897158Y-61799999D01*
G36*
X113797158Y-62699999D02*
G01*
X112897158Y-61799999D01*
X113797158Y-61799999D01*
X113797158Y-62699999D01*
G37*
%TO.C,D6*%
D12*
X182000000Y-93040000D02*
X182000000Y-93690000D01*
X182000000Y-98580000D02*
X182000000Y-97930000D01*
X183120000Y-97090000D02*
X180880000Y-97090000D01*
X183120000Y-97210000D02*
X180880000Y-97210000D01*
X183120000Y-97330000D02*
X180880000Y-97330000D01*
X180880000Y-93690000D02*
X183120000Y-93690000D01*
X183120000Y-97930000D01*
X180880000Y-97930000D01*
X180880000Y-93690000D01*
%TO.C,D5*%
X180880000Y-77290000D02*
X183120000Y-77290000D01*
X180880000Y-77410000D02*
X183120000Y-77410000D01*
X180880000Y-77530000D02*
X183120000Y-77530000D01*
X182000000Y-76040000D02*
X182000000Y-76690000D01*
X182000000Y-81580000D02*
X182000000Y-80930000D01*
X180880000Y-76690000D02*
X183120000Y-76690000D01*
X183120000Y-80930000D01*
X180880000Y-80930000D01*
X180880000Y-76690000D01*
%TO.C,D4*%
X144825000Y-105605000D02*
X145475000Y-105605000D01*
X148875000Y-104485000D02*
X148875000Y-106725000D01*
X148995000Y-104485000D02*
X148995000Y-106725000D01*
X149115000Y-104485000D02*
X149115000Y-106725000D01*
X150365000Y-105605000D02*
X149715000Y-105605000D01*
X145475000Y-104485000D02*
X149715000Y-104485000D01*
X149715000Y-106725000D01*
X145475000Y-106725000D01*
X145475000Y-104485000D01*
%TO.C,D3*%
X137800000Y-69000000D02*
X138450000Y-69000000D01*
X141850000Y-67880000D02*
X141850000Y-70120000D01*
X141970000Y-67880000D02*
X141970000Y-70120000D01*
X142090000Y-67880000D02*
X142090000Y-70120000D01*
X143340000Y-69000000D02*
X142690000Y-69000000D01*
X138450000Y-67880000D02*
X142690000Y-67880000D01*
X142690000Y-70120000D01*
X138450000Y-70120000D01*
X138450000Y-67880000D01*
%TO.C,D2*%
X124000000Y-91230000D02*
X124000000Y-91880000D01*
X124000000Y-96770000D02*
X124000000Y-96120000D01*
X125120000Y-95280000D02*
X122880000Y-95280000D01*
X125120000Y-95400000D02*
X122880000Y-95400000D01*
X125120000Y-95520000D02*
X122880000Y-95520000D01*
X122880000Y-91880000D02*
X125120000Y-91880000D01*
X125120000Y-96120000D01*
X122880000Y-96120000D01*
X122880000Y-91880000D01*
%TO.C,D1*%
X124000000Y-74420000D02*
X124000000Y-75070000D01*
X124000000Y-79960000D02*
X124000000Y-79310000D01*
X125120000Y-78470000D02*
X122880000Y-78470000D01*
X125120000Y-78590000D02*
X122880000Y-78590000D01*
X125120000Y-78710000D02*
X122880000Y-78710000D01*
X122880000Y-75070000D02*
X125120000Y-75070000D01*
X125120000Y-79310000D01*
X122880000Y-79310000D01*
X122880000Y-75070000D01*
%TD*%
M02*
