%TF.GenerationSoftware,KiCad,Pcbnew,10.0.5*%
%TF.CreationDate,2026-09-26T23:26:05+05:30*%
%TF.ProjectId,PCB,5043422e-6b69-4636-9164-5f7063625858,rev?*%
%TF.SameCoordinates,Original*%
%TF.FileFunction,Profile,NP*%
%FSLAX46Y46*%
G04 Gerber Fmt 4.6, Leading zero omitted, Abs format (unit mm)*
G04 Created by KiCad (PCBNEW 10.0.5) date 2026-09-26 23:26:05*
%MOMM*%
%LPD*%
G01*
G04 APERTURE LIST*
%TA.AperFunction,Profile*%
%ADD10C,0.050000*%
%TD*%
%TA.AperFunction,Profile*%
%ADD11C,0.100000*%
%TD*%
G04 APERTURE END LIST*
D10*
X108000000Y-31000000D02*
X198000000Y-31000000D01*
X198000000Y-116000000D01*
X108000000Y-116000000D01*
X108000000Y-31000000D01*
%TO.C,D17*%
D11*
X191002841Y-85294453D02*
X191002841Y-83705549D01*
X191799999Y-82800002D02*
X193205683Y-82800002D01*
X193205683Y-86200000D02*
X191799999Y-86200000D01*
X194002840Y-83705549D02*
X194002840Y-85294454D01*
X190934542Y-83453291D02*
G75*
G02*
X191002841Y-83705549I-431710J-252261D01*
G01*
X190934544Y-83453290D02*
G75*
G02*
X191583121Y-82750517I431700J252258D01*
G01*
X191002841Y-85294453D02*
G75*
G02*
X190934542Y-85546712I-500012J3D01*
G01*
X191583121Y-86249485D02*
G75*
G02*
X191799999Y-86200000I216878J-450515D01*
G01*
X191583122Y-86249485D02*
G75*
G02*
X190934542Y-85546712I-216880J450514D01*
G01*
X191799998Y-82800002D02*
G75*
G02*
X191583121Y-82750517I-1J499990D01*
G01*
X193205684Y-86200000D02*
G75*
G02*
X193422564Y-86249479I15J-500000D01*
G01*
X193422561Y-82750517D02*
G75*
G02*
X193205683Y-82800002I-216876J450505D01*
G01*
X193422561Y-82750517D02*
G75*
G02*
X194071140Y-83453290I216878J-450515D01*
G01*
X194002841Y-83705548D02*
G75*
G02*
X194071140Y-83453290I500009J-3D01*
G01*
X194071139Y-85546712D02*
G75*
G02*
X193422561Y-86249484I-431700J-252258D01*
G01*
X194071139Y-85546712D02*
G75*
G02*
X194002839Y-85294454I431710J252262D01*
G01*
%TO.C,D21*%
X128700001Y-35600000D02*
X128700001Y-34194316D01*
X129605548Y-33397159D02*
X131194453Y-33397159D01*
X131194452Y-36397158D02*
X129605548Y-36397158D01*
X132099999Y-34194316D02*
X132099999Y-35600000D01*
X128650516Y-33977438D02*
G75*
G02*
X128700001Y-34194316I-450505J-216876D01*
G01*
X128650516Y-33977438D02*
G75*
G02*
X129353289Y-33328859I450515J216878D01*
G01*
X128700001Y-35600001D02*
G75*
G02*
X128650516Y-35816878I-499990J-1D01*
G01*
X129353289Y-36465455D02*
G75*
G02*
X128650516Y-35816878I-252258J431700D01*
G01*
X129353290Y-36465457D02*
G75*
G02*
X129605548Y-36397158I252261J-431710D01*
G01*
X129605547Y-33397158D02*
G75*
G02*
X129353289Y-33328859I3J500009D01*
G01*
X131194452Y-36397158D02*
G75*
G02*
X131446711Y-36465457I-3J-500012D01*
G01*
X131446711Y-33328860D02*
G75*
G02*
X131194453Y-33397160I-252262J431710D01*
G01*
X131446711Y-33328860D02*
G75*
G02*
X132149483Y-33977438I252258J-431700D01*
G01*
X132099999Y-34194315D02*
G75*
G02*
X132149478Y-33977435I500000J15D01*
G01*
X132149484Y-35816877D02*
G75*
G02*
X131446711Y-36465457I-450514J-216880D01*
G01*
X132149484Y-35816878D02*
G75*
G02*
X132099999Y-35600000I450515J216878D01*
G01*
%TO.C,D9*%
X110397159Y-101794451D02*
X110397159Y-100205546D01*
X111194316Y-99300000D02*
X112600000Y-99300000D01*
X112600000Y-102699998D02*
X111194316Y-102699998D01*
X113397158Y-100205547D02*
X113397158Y-101794451D01*
X110328860Y-99953288D02*
G75*
G02*
X110397160Y-100205546I-431710J-252262D01*
G01*
X110328860Y-99953288D02*
G75*
G02*
X110977438Y-99250516I431700J252258D01*
G01*
X110397158Y-101794452D02*
G75*
G02*
X110328859Y-102046710I-500009J3D01*
G01*
X110977438Y-102749483D02*
G75*
G02*
X110328859Y-102046710I-216878J450515D01*
G01*
X110977438Y-102749483D02*
G75*
G02*
X111194316Y-102699998I216876J-450505D01*
G01*
X111194315Y-99300000D02*
G75*
G02*
X110977435Y-99250521I-15J500000D01*
G01*
X112600001Y-102699998D02*
G75*
G02*
X112816878Y-102749483I1J-499990D01*
G01*
X112816877Y-99250515D02*
G75*
G02*
X113465457Y-99953288I216880J-450514D01*
G01*
X112816878Y-99250515D02*
G75*
G02*
X112600000Y-99300000I-216878J450515D01*
G01*
X113397158Y-100205547D02*
G75*
G02*
X113465457Y-99953288I500012J-3D01*
G01*
X113465455Y-102046710D02*
G75*
G02*
X112816878Y-102749483I-431700J-252258D01*
G01*
X113465457Y-102046709D02*
G75*
G02*
X113397158Y-101794451I431710J252261D01*
G01*
%TO.C,D18*%
X190602842Y-68794453D02*
X190602842Y-67205549D01*
X191400000Y-66300002D02*
X192805684Y-66300002D01*
X192805684Y-69700000D02*
X191400000Y-69700000D01*
X193602841Y-67205549D02*
X193602841Y-68794454D01*
X190534543Y-66953291D02*
G75*
G02*
X190602842Y-67205549I-431710J-252261D01*
G01*
X190534545Y-66953290D02*
G75*
G02*
X191183122Y-66250517I431700J252258D01*
G01*
X190602842Y-68794453D02*
G75*
G02*
X190534543Y-69046712I-500012J3D01*
G01*
X191183122Y-69749485D02*
G75*
G02*
X191400000Y-69700000I216878J-450515D01*
G01*
X191183123Y-69749485D02*
G75*
G02*
X190534543Y-69046712I-216880J450514D01*
G01*
X191399999Y-66300002D02*
G75*
G02*
X191183122Y-66250517I-1J499990D01*
G01*
X192805685Y-69700000D02*
G75*
G02*
X193022565Y-69749479I15J-500000D01*
G01*
X193022562Y-66250517D02*
G75*
G02*
X192805684Y-66300002I-216876J450505D01*
G01*
X193022562Y-66250517D02*
G75*
G02*
X193671141Y-66953290I216878J-450515D01*
G01*
X193602842Y-67205548D02*
G75*
G02*
X193671141Y-66953290I500009J-3D01*
G01*
X193671140Y-69046712D02*
G75*
G02*
X193022562Y-69749484I-431700J-252258D01*
G01*
X193671140Y-69046712D02*
G75*
G02*
X193602840Y-68794454I431710J252262D01*
G01*
%TO.C,D13*%
X110397159Y-50794451D02*
X110397159Y-49205546D01*
X111194316Y-48300000D02*
X112600000Y-48300000D01*
X112600000Y-51699998D02*
X111194316Y-51699998D01*
X113397158Y-49205547D02*
X113397158Y-50794451D01*
X110328860Y-48953288D02*
G75*
G02*
X110397160Y-49205546I-431710J-252262D01*
G01*
X110328860Y-48953288D02*
G75*
G02*
X110977438Y-48250516I431700J252258D01*
G01*
X110397158Y-50794452D02*
G75*
G02*
X110328859Y-51046710I-500009J3D01*
G01*
X110977438Y-51749483D02*
G75*
G02*
X110328859Y-51046710I-216878J450515D01*
G01*
X110977438Y-51749483D02*
G75*
G02*
X111194316Y-51699998I216876J-450505D01*
G01*
X111194315Y-48300000D02*
G75*
G02*
X110977435Y-48250521I-15J500000D01*
G01*
X112600001Y-51699998D02*
G75*
G02*
X112816878Y-51749483I1J-499990D01*
G01*
X112816877Y-48250515D02*
G75*
G02*
X113465457Y-48953288I216880J-450514D01*
G01*
X112816878Y-48250515D02*
G75*
G02*
X112600000Y-48300000I-216878J450515D01*
G01*
X113397158Y-49205547D02*
G75*
G02*
X113465457Y-48953288I500012J-3D01*
G01*
X113465455Y-51046710D02*
G75*
G02*
X112816878Y-51749483I-431700J-252258D01*
G01*
X113465457Y-51046709D02*
G75*
G02*
X113397158Y-50794451I431710J252261D01*
G01*
%TO.C,D19*%
X114700001Y-35600000D02*
X114700001Y-34194316D01*
X115605548Y-33397159D02*
X117194453Y-33397159D01*
X117194452Y-36397158D02*
X115605548Y-36397158D01*
X118099999Y-34194316D02*
X118099999Y-35600000D01*
X114650516Y-33977438D02*
G75*
G02*
X114700001Y-34194316I-450505J-216876D01*
G01*
X114650516Y-33977438D02*
G75*
G02*
X115353289Y-33328859I450515J216878D01*
G01*
X114700001Y-35600001D02*
G75*
G02*
X114650516Y-35816878I-499990J-1D01*
G01*
X115353289Y-36465455D02*
G75*
G02*
X114650516Y-35816878I-252258J431700D01*
G01*
X115353290Y-36465457D02*
G75*
G02*
X115605548Y-36397158I252261J-431710D01*
G01*
X115605547Y-33397158D02*
G75*
G02*
X115353289Y-33328859I3J500009D01*
G01*
X117194452Y-36397158D02*
G75*
G02*
X117446711Y-36465457I-3J-500012D01*
G01*
X117446711Y-33328860D02*
G75*
G02*
X117194453Y-33397160I-252262J431710D01*
G01*
X117446711Y-33328860D02*
G75*
G02*
X118149483Y-33977438I252258J-431700D01*
G01*
X118099999Y-34194315D02*
G75*
G02*
X118149478Y-33977435I500000J15D01*
G01*
X118149484Y-35816877D02*
G75*
G02*
X117446711Y-36465457I-450514J-216880D01*
G01*
X118149484Y-35816878D02*
G75*
G02*
X118099999Y-35600000I450515J216878D01*
G01*
%TO.C,D22*%
X191002841Y-50794453D02*
X191002841Y-49205549D01*
X191799999Y-48300002D02*
X193205683Y-48300002D01*
X193205683Y-51700000D02*
X191799999Y-51700000D01*
X194002840Y-49205549D02*
X194002840Y-50794454D01*
X190934542Y-48953291D02*
G75*
G02*
X191002841Y-49205549I-431710J-252261D01*
G01*
X190934544Y-48953290D02*
G75*
G02*
X191583121Y-48250517I431700J252258D01*
G01*
X191002841Y-50794453D02*
G75*
G02*
X190934542Y-51046712I-500012J3D01*
G01*
X191583121Y-51749485D02*
G75*
G02*
X191799999Y-51700000I216878J-450515D01*
G01*
X191583122Y-51749485D02*
G75*
G02*
X190934542Y-51046712I-216880J450514D01*
G01*
X191799998Y-48300002D02*
G75*
G02*
X191583121Y-48250517I-1J499990D01*
G01*
X193205684Y-51700000D02*
G75*
G02*
X193422564Y-51749479I15J-500000D01*
G01*
X193422561Y-48250517D02*
G75*
G02*
X193205683Y-48300002I-216876J450505D01*
G01*
X193422561Y-48250517D02*
G75*
G02*
X194071140Y-48953290I216878J-450515D01*
G01*
X194002841Y-49205548D02*
G75*
G02*
X194071140Y-48953290I500009J-3D01*
G01*
X194071139Y-51046712D02*
G75*
G02*
X193422561Y-51749484I-431700J-252258D01*
G01*
X194071139Y-51046712D02*
G75*
G02*
X194002839Y-50794454I431710J252262D01*
G01*
%TO.C,D11*%
X140300002Y-111600000D02*
X140300002Y-110194316D01*
X141205549Y-109397159D02*
X142794454Y-109397159D01*
X142794453Y-112397158D02*
X141205549Y-112397158D01*
X143700000Y-110194316D02*
X143700000Y-111600000D01*
X140250517Y-109977438D02*
G75*
G02*
X140300002Y-110194316I-450505J-216876D01*
G01*
X140250517Y-109977438D02*
G75*
G02*
X140953290Y-109328859I450515J216878D01*
G01*
X140300002Y-111600001D02*
G75*
G02*
X140250517Y-111816878I-499990J-1D01*
G01*
X140953290Y-112465455D02*
G75*
G02*
X140250517Y-111816878I-252258J431700D01*
G01*
X140953291Y-112465457D02*
G75*
G02*
X141205549Y-112397158I252261J-431710D01*
G01*
X141205548Y-109397158D02*
G75*
G02*
X140953290Y-109328859I3J500009D01*
G01*
X142794453Y-112397158D02*
G75*
G02*
X143046712Y-112465457I-3J-500012D01*
G01*
X143046712Y-109328860D02*
G75*
G02*
X142794454Y-109397160I-252262J431710D01*
G01*
X143046712Y-109328860D02*
G75*
G02*
X143749484Y-109977438I252258J-431700D01*
G01*
X143700000Y-110194315D02*
G75*
G02*
X143749479Y-109977435I500000J15D01*
G01*
X143749485Y-111816877D02*
G75*
G02*
X143046712Y-112465457I-450514J-216880D01*
G01*
X143749485Y-111816878D02*
G75*
G02*
X143700000Y-111600000I450515J216878D01*
G01*
%TO.C,D15*%
X181700001Y-111600000D02*
X181700001Y-110194316D01*
X182605548Y-109397159D02*
X184194453Y-109397159D01*
X184194452Y-112397158D02*
X182605548Y-112397158D01*
X185099999Y-110194316D02*
X185099999Y-111600000D01*
X181650516Y-109977438D02*
G75*
G02*
X181700001Y-110194316I-450505J-216876D01*
G01*
X181650516Y-109977438D02*
G75*
G02*
X182353289Y-109328859I450515J216878D01*
G01*
X181700001Y-111600001D02*
G75*
G02*
X181650516Y-111816878I-499990J-1D01*
G01*
X182353289Y-112465455D02*
G75*
G02*
X181650516Y-111816878I-252258J431700D01*
G01*
X182353290Y-112465457D02*
G75*
G02*
X182605548Y-112397158I252261J-431710D01*
G01*
X182605547Y-109397158D02*
G75*
G02*
X182353289Y-109328859I3J500009D01*
G01*
X184194452Y-112397158D02*
G75*
G02*
X184446711Y-112465457I-3J-500012D01*
G01*
X184446711Y-109328860D02*
G75*
G02*
X184194453Y-109397160I-252262J431710D01*
G01*
X184446711Y-109328860D02*
G75*
G02*
X185149483Y-109977438I252258J-431700D01*
G01*
X185099999Y-110194315D02*
G75*
G02*
X185149478Y-109977435I500000J15D01*
G01*
X185149484Y-111816877D02*
G75*
G02*
X184446711Y-112465457I-450514J-216880D01*
G01*
X185149484Y-111816878D02*
G75*
G02*
X185099999Y-111600000I450515J216878D01*
G01*
%TO.C,D12*%
X161300002Y-111600000D02*
X161300002Y-110194316D01*
X162205549Y-109397159D02*
X163794454Y-109397159D01*
X163794453Y-112397158D02*
X162205549Y-112397158D01*
X164700000Y-110194316D02*
X164700000Y-111600000D01*
X161250517Y-109977438D02*
G75*
G02*
X161300002Y-110194316I-450505J-216876D01*
G01*
X161250517Y-109977438D02*
G75*
G02*
X161953290Y-109328859I450515J216878D01*
G01*
X161300002Y-111600001D02*
G75*
G02*
X161250517Y-111816878I-499990J-1D01*
G01*
X161953290Y-112465455D02*
G75*
G02*
X161250517Y-111816878I-252258J431700D01*
G01*
X161953291Y-112465457D02*
G75*
G02*
X162205549Y-112397158I252261J-431710D01*
G01*
X162205548Y-109397158D02*
G75*
G02*
X161953290Y-109328859I3J500009D01*
G01*
X163794453Y-112397158D02*
G75*
G02*
X164046712Y-112465457I-3J-500012D01*
G01*
X164046712Y-109328860D02*
G75*
G02*
X163794454Y-109397160I-252262J431710D01*
G01*
X164046712Y-109328860D02*
G75*
G02*
X164749484Y-109977438I252258J-431700D01*
G01*
X164700000Y-110194315D02*
G75*
G02*
X164749479Y-109977435I500000J15D01*
G01*
X164749485Y-111816877D02*
G75*
G02*
X164046712Y-112465457I-450514J-216880D01*
G01*
X164749485Y-111816878D02*
G75*
G02*
X164700000Y-111600000I450515J216878D01*
G01*
%TO.C,D20*%
X186700001Y-35600000D02*
X186700001Y-34194316D01*
X187605548Y-33397159D02*
X189194453Y-33397159D01*
X189194452Y-36397158D02*
X187605548Y-36397158D01*
X190099999Y-34194316D02*
X190099999Y-35600000D01*
X186650516Y-33977438D02*
G75*
G02*
X186700001Y-34194316I-450505J-216876D01*
G01*
X186650516Y-33977438D02*
G75*
G02*
X187353289Y-33328859I450515J216878D01*
G01*
X186700001Y-35600001D02*
G75*
G02*
X186650516Y-35816878I-499990J-1D01*
G01*
X187353289Y-36465455D02*
G75*
G02*
X186650516Y-35816878I-252258J431700D01*
G01*
X187353290Y-36465457D02*
G75*
G02*
X187605548Y-36397158I252261J-431710D01*
G01*
X187605547Y-33397158D02*
G75*
G02*
X187353289Y-33328859I3J500009D01*
G01*
X189194452Y-36397158D02*
G75*
G02*
X189446711Y-36465457I-3J-500012D01*
G01*
X189446711Y-33328860D02*
G75*
G02*
X189194453Y-33397160I-252262J431710D01*
G01*
X189446711Y-33328860D02*
G75*
G02*
X190149483Y-33977438I252258J-431700D01*
G01*
X190099999Y-34194315D02*
G75*
G02*
X190149478Y-33977435I500000J15D01*
G01*
X190149484Y-35816877D02*
G75*
G02*
X189446711Y-36465457I-450514J-216880D01*
G01*
X190149484Y-35816878D02*
G75*
G02*
X190099999Y-35600000I450515J216878D01*
G01*
%TO.C,D14*%
X110397159Y-85294451D02*
X110397159Y-83705546D01*
X111194316Y-82800000D02*
X112600000Y-82800000D01*
X112600000Y-86199998D02*
X111194316Y-86199998D01*
X113397158Y-83705547D02*
X113397158Y-85294451D01*
X110328860Y-83453288D02*
G75*
G02*
X110397160Y-83705546I-431710J-252262D01*
G01*
X110328860Y-83453288D02*
G75*
G02*
X110977438Y-82750516I431700J252258D01*
G01*
X110397158Y-85294452D02*
G75*
G02*
X110328859Y-85546710I-500009J3D01*
G01*
X110977438Y-86249483D02*
G75*
G02*
X110328859Y-85546710I-216878J450515D01*
G01*
X110977438Y-86249483D02*
G75*
G02*
X111194316Y-86199998I216876J-450505D01*
G01*
X111194315Y-82800000D02*
G75*
G02*
X110977435Y-82750521I-15J500000D01*
G01*
X112600001Y-86199998D02*
G75*
G02*
X112816878Y-86249483I1J-499990D01*
G01*
X112816877Y-82750515D02*
G75*
G02*
X113465457Y-83453288I216880J-450514D01*
G01*
X112816878Y-82750515D02*
G75*
G02*
X112600000Y-82800000I-216878J450515D01*
G01*
X113397158Y-83705547D02*
G75*
G02*
X113465457Y-83453288I500012J-3D01*
G01*
X113465455Y-85546710D02*
G75*
G02*
X112816878Y-86249483I-431700J-252258D01*
G01*
X113465457Y-85546709D02*
G75*
G02*
X113397158Y-85294451I431710J252261D01*
G01*
%TO.C,D16*%
X191750000Y-101794453D02*
X191750000Y-100205549D01*
X192547158Y-99300002D02*
X193952842Y-99300002D01*
X193952842Y-102700000D02*
X192547158Y-102700000D01*
X194749999Y-100205549D02*
X194749999Y-101794454D01*
X191681701Y-99953291D02*
G75*
G02*
X191750000Y-100205549I-431710J-252261D01*
G01*
X191681703Y-99953290D02*
G75*
G02*
X192330280Y-99250517I431700J252258D01*
G01*
X191750000Y-101794453D02*
G75*
G02*
X191681701Y-102046712I-500012J3D01*
G01*
X192330280Y-102749485D02*
G75*
G02*
X192547158Y-102700000I216878J-450515D01*
G01*
X192330281Y-102749485D02*
G75*
G02*
X191681701Y-102046712I-216880J450514D01*
G01*
X192547157Y-99300002D02*
G75*
G02*
X192330280Y-99250517I-1J499990D01*
G01*
X193952843Y-102700000D02*
G75*
G02*
X194169723Y-102749479I15J-500000D01*
G01*
X194169720Y-99250517D02*
G75*
G02*
X193952842Y-99300002I-216876J450505D01*
G01*
X194169720Y-99250517D02*
G75*
G02*
X194818299Y-99953290I216878J-450515D01*
G01*
X194750000Y-100205548D02*
G75*
G02*
X194818299Y-99953290I500009J-3D01*
G01*
X194818298Y-102046712D02*
G75*
G02*
X194169720Y-102749484I-431700J-252258D01*
G01*
X194818298Y-102046712D02*
G75*
G02*
X194749998Y-101794454I431710J252262D01*
G01*
%TO.C,D7*%
X170300002Y-35600000D02*
X170300002Y-34194316D01*
X171205549Y-33397159D02*
X172794454Y-33397159D01*
X172794453Y-36397158D02*
X171205549Y-36397158D01*
X173700000Y-34194316D02*
X173700000Y-35600000D01*
X170250517Y-33977438D02*
G75*
G02*
X170300002Y-34194316I-450505J-216876D01*
G01*
X170250517Y-33977438D02*
G75*
G02*
X170953290Y-33328859I450515J216878D01*
G01*
X170300002Y-35600001D02*
G75*
G02*
X170250517Y-35816878I-499990J-1D01*
G01*
X170953290Y-36465455D02*
G75*
G02*
X170250517Y-35816878I-252258J431700D01*
G01*
X170953291Y-36465457D02*
G75*
G02*
X171205549Y-36397158I252261J-431710D01*
G01*
X171205548Y-33397158D02*
G75*
G02*
X170953290Y-33328859I3J500009D01*
G01*
X172794453Y-36397158D02*
G75*
G02*
X173046712Y-36465457I-3J-500012D01*
G01*
X173046712Y-33328860D02*
G75*
G02*
X172794454Y-33397160I-252262J431710D01*
G01*
X173046712Y-33328860D02*
G75*
G02*
X173749484Y-33977438I252258J-431700D01*
G01*
X173700000Y-34194315D02*
G75*
G02*
X173749479Y-33977435I500000J15D01*
G01*
X173749485Y-35816877D02*
G75*
G02*
X173046712Y-36465457I-450514J-216880D01*
G01*
X173749485Y-35816878D02*
G75*
G02*
X173700000Y-35600000I450515J216878D01*
G01*
%TO.C,D10*%
X120300002Y-111600000D02*
X120300002Y-110194316D01*
X121205549Y-109397159D02*
X122794454Y-109397159D01*
X122794453Y-112397158D02*
X121205549Y-112397158D01*
X123700000Y-110194316D02*
X123700000Y-111600000D01*
X120250517Y-109977438D02*
G75*
G02*
X120300002Y-110194316I-450505J-216876D01*
G01*
X120250517Y-109977438D02*
G75*
G02*
X120953290Y-109328859I450515J216878D01*
G01*
X120300002Y-111600001D02*
G75*
G02*
X120250517Y-111816878I-499990J-1D01*
G01*
X120953290Y-112465455D02*
G75*
G02*
X120250517Y-111816878I-252258J431700D01*
G01*
X120953291Y-112465457D02*
G75*
G02*
X121205549Y-112397158I252261J-431710D01*
G01*
X121205548Y-109397158D02*
G75*
G02*
X120953290Y-109328859I3J500009D01*
G01*
X122794453Y-112397158D02*
G75*
G02*
X123046712Y-112465457I-3J-500012D01*
G01*
X123046712Y-109328860D02*
G75*
G02*
X122794454Y-109397160I-252262J431710D01*
G01*
X123046712Y-109328860D02*
G75*
G02*
X123749484Y-109977438I252258J-431700D01*
G01*
X123700000Y-110194315D02*
G75*
G02*
X123749479Y-109977435I500000J15D01*
G01*
X123749485Y-111816877D02*
G75*
G02*
X123046712Y-112465457I-450514J-216880D01*
G01*
X123749485Y-111816878D02*
G75*
G02*
X123700000Y-111600000I450515J216878D01*
G01*
%TO.C,D8*%
X110397159Y-66794451D02*
X110397159Y-65205546D01*
X111194316Y-64300000D02*
X112600000Y-64300000D01*
X112600000Y-67699998D02*
X111194316Y-67699998D01*
X113397158Y-65205547D02*
X113397158Y-66794451D01*
X110328860Y-64953288D02*
G75*
G02*
X110397160Y-65205546I-431710J-252262D01*
G01*
X110328860Y-64953288D02*
G75*
G02*
X110977438Y-64250516I431700J252258D01*
G01*
X110397158Y-66794452D02*
G75*
G02*
X110328859Y-67046710I-500009J3D01*
G01*
X110977438Y-67749483D02*
G75*
G02*
X110328859Y-67046710I-216878J450515D01*
G01*
X110977438Y-67749483D02*
G75*
G02*
X111194316Y-67699998I216876J-450505D01*
G01*
X111194315Y-64300000D02*
G75*
G02*
X110977435Y-64250521I-15J500000D01*
G01*
X112600001Y-67699998D02*
G75*
G02*
X112816878Y-67749483I1J-499990D01*
G01*
X112816877Y-64250515D02*
G75*
G02*
X113465457Y-64953288I216880J-450514D01*
G01*
X112816878Y-64250515D02*
G75*
G02*
X112600000Y-64300000I-216878J450515D01*
G01*
X113397158Y-65205547D02*
G75*
G02*
X113465457Y-64953288I500012J-3D01*
G01*
X113465455Y-67046710D02*
G75*
G02*
X112816878Y-67749483I-431700J-252258D01*
G01*
X113465457Y-67046709D02*
G75*
G02*
X113397158Y-66794451I431710J252261D01*
G01*
%TD*%
M02*
