%TF.GenerationSoftware,KiCad,Pcbnew,10.0.5*%
%TF.CreationDate,2026-09-26T23:26:05+05:30*%
%TF.ProjectId,PCB,5043422e-6b69-4636-9164-5f7063625858,rev?*%
%TF.SameCoordinates,Original*%
%TF.FileFunction,Paste,Bot*%
%TF.FilePolarity,Positive*%
%FSLAX46Y46*%
G04 Gerber Fmt 4.6, Leading zero omitted, Abs format (unit mm)*
G04 Created by KiCad (PCBNEW 10.0.5) date 2026-09-26 23:26:05*
%MOMM*%
%LPD*%
G01*
G04 APERTURE LIST*
G04 Aperture macros list*
%AMRoundRect*
0 Rectangle with rounded corners*
0 $1 Rounding radius*
0 $2 $3 $4 $5 $6 $7 $8 $9 X,Y pos of 4 corners*
0 Add a 4 corners polygon primitive as box body*
4,1,4,$2,$3,$4,$5,$6,$7,$8,$9,$2,$3,0*
0 Add four circle primitives for the rounded corners*
1,1,$1+$1,$2,$3*
1,1,$1+$1,$4,$5*
1,1,$1+$1,$6,$7*
1,1,$1+$1,$8,$9*
0 Add four rect primitives between the rounded corners*
20,1,$1+$1,$2,$3,$4,$5,0*
20,1,$1+$1,$4,$5,$6,$7,0*
20,1,$1+$1,$6,$7,$8,$9,0*
20,1,$1+$1,$8,$9,$2,$3,0*%
G04 Aperture macros list end*
%ADD10RoundRect,0.082000X0.328000X0.718000X-0.328000X0.718000X-0.328000X-0.718000X0.328000X-0.718000X0*%
%ADD11RoundRect,0.082000X-0.718000X0.328000X-0.718000X-0.328000X0.718000X-0.328000X0.718000X0.328000X0*%
%ADD12RoundRect,0.082000X-0.328000X-0.718000X0.328000X-0.718000X0.328000X0.718000X-0.328000X0.718000X0*%
G04 APERTURE END LIST*
D10*
%TO.C,D17*%
X193252841Y-81900001D03*
X191752841Y-81900001D03*
X191752841Y-87100001D03*
X193252841Y-87100001D03*
%TD*%
D11*
%TO.C,D21*%
X127800000Y-34147158D03*
X127800000Y-35647158D03*
X133000000Y-35647158D03*
X133000000Y-34147158D03*
%TD*%
D12*
%TO.C,D9*%
X111147158Y-103599999D03*
X112647158Y-103599999D03*
X112647158Y-98399999D03*
X111147158Y-98399999D03*
%TD*%
D10*
%TO.C,D18*%
X192852842Y-65400001D03*
X191352842Y-65400001D03*
X191352842Y-70600001D03*
X192852842Y-70600001D03*
%TD*%
D12*
%TO.C,D13*%
X111147158Y-52599999D03*
X112647158Y-52599999D03*
X112647158Y-47399999D03*
X111147158Y-47399999D03*
%TD*%
D11*
%TO.C,D19*%
X113800000Y-34147158D03*
X113800000Y-35647158D03*
X119000000Y-35647158D03*
X119000000Y-34147158D03*
%TD*%
D10*
%TO.C,D22*%
X193252841Y-47400001D03*
X191752841Y-47400001D03*
X191752841Y-52600001D03*
X193252841Y-52600001D03*
%TD*%
D11*
%TO.C,D11*%
X139400001Y-110147158D03*
X139400001Y-111647158D03*
X144600001Y-111647158D03*
X144600001Y-110147158D03*
%TD*%
%TO.C,D15*%
X180800000Y-110147158D03*
X180800000Y-111647158D03*
X186000000Y-111647158D03*
X186000000Y-110147158D03*
%TD*%
%TO.C,D12*%
X160400001Y-110147158D03*
X160400001Y-111647158D03*
X165600001Y-111647158D03*
X165600001Y-110147158D03*
%TD*%
%TO.C,D20*%
X185800000Y-34147158D03*
X185800000Y-35647158D03*
X191000000Y-35647158D03*
X191000000Y-34147158D03*
%TD*%
D12*
%TO.C,D14*%
X111147158Y-87099999D03*
X112647158Y-87099999D03*
X112647158Y-81899999D03*
X111147158Y-81899999D03*
%TD*%
D10*
%TO.C,D16*%
X194000000Y-98400001D03*
X192500000Y-98400001D03*
X192500000Y-103600001D03*
X194000000Y-103600001D03*
%TD*%
D11*
%TO.C,D7*%
X169400001Y-34147158D03*
X169400001Y-35647158D03*
X174600001Y-35647158D03*
X174600001Y-34147158D03*
%TD*%
%TO.C,D10*%
X119400001Y-110147158D03*
X119400001Y-111647158D03*
X124600001Y-111647158D03*
X124600001Y-110147158D03*
%TD*%
D12*
%TO.C,D8*%
X111147158Y-68599999D03*
X112647158Y-68599999D03*
X112647158Y-63399999D03*
X111147158Y-63399999D03*
%TD*%
M02*
